<?xml version="1.0" standalone="no"?>
<!DOCTYPE svg PUBLIC "-//W3C//DTD SVG 1.1//EN" "http://www.w3.org/Graphics/SVG/1.1/DTD/svg11.dtd" >
<svg xmlns="http://www.w3.org/2000/svg">
<metadata>Generated by IcoMoon</metadata>
<defs>
<font id="icon-delive" horiz-adv-x="1024">
<font-face units-per-em="1024" ascent="798.72" descent="-225.28" />
<missing-glyph horiz-adv-x="1024" />
<glyph unicode="&#x20;" horiz-adv-x="241.664" d="" />
<glyph unicode="&#x21;" glyph-name="exclam" horiz-adv-x="280" d="M204.8 298.24h-130.048l-13.312 512h156.672zM139.264 32q-32.768 0-55.808 23.552t-23.040 56.32 23.040 55.808 55.808 23.040q33.792 0 56.832-23.040t23.040-55.808-23.040-56.32-56.832-23.552z" />
<glyph unicode="&#x22;" glyph-name="quotedbl" horiz-adv-x="461" d="M281.6 549.12l-15.36 261.12h133.12l-15.36-261.12h-102.4zM76.8 549.12l-15.36 261.12h133.12l-15.36-261.12h-102.4z" />
<glyph unicode="&#x23;" glyph-name="numbersign" d="M318.464 335.104l44.032 179.2h-118.784l-44.032-179.2h118.784zM245.76 42.24l48.128 195.584h-118.784l-48.128-195.584h-107.52l48.128 195.584h-67.584v97.28h92.16l44.032 179.2h-77.824v97.28h102.4l49.152 198.656h107.52l-49.152-198.656h118.784l49.152 198.656h107.52l-49.152-198.656h68.608v-97.28h-93.184l-44.032-179.2h79.872v-97.28h-104.448l-48.128-195.584h-107.52z" />
<glyph unicode="&#x24;" glyph-name="dollar" d="M200.704 630.016q0-47.104 48.128-84.992v152.576q-48.128-15.36-48.128-67.584zM371.712 225.536q0 50.176-51.2 93.184v-163.84q51.2 18.432 51.2 70.656zM320.512-85.76h-71.68v116.736q-86.016 9.216-140.8 62.976t-54.784 140.8v63.488h139.264v-56.32q0-71.68 56.32-88.064v217.088l-66.56 46.080q-58.368 39.936-89.6 89.088t-31.232 120.832q0 86.016 51.712 136.192t135.68 58.368v116.736h71.68v-116.736q80.896-11.264 131.072-66.048t50.176-144.896v-53.248h-138.24v50.176q0 69.632-43.008 88.064v-201.728l69.632-47.104q121.856-84.992 121.856-206.848 0-91.136-53.248-144.896t-138.24-64v-116.736z" />
<glyph unicode="&#x25;" glyph-name="percent" horiz-adv-x="825" d="M183.296 405.76q-72.704 0-117.248 51.712t-44.544 153.088 44.544 153.6 117.248 52.224 116.736-52.224 44.032-153.6q0-102.4-43.52-153.6t-117.248-51.2zM105.472 42.24l532.48 768h81.92l-532.48-768h-81.92zM183.296 500.992q53.248 0 53.248 109.568 0 114.688-53.248 114.688-54.272 0-54.272-114.688 0-109.568 54.272-109.568zM642.048 36.096q-72.704 0-117.248 51.712t-44.544 153.088 44.544 153.6 117.248 52.224 116.736-52.224 44.032-153.6q0-102.4-43.52-153.6t-117.248-51.2zM642.048 131.328q53.248 0 53.248 109.568 0 114.688-53.248 114.688-54.272 0-54.272-114.688 0-109.568 54.272-109.568z" />
<glyph unicode="&#x26;" glyph-name="ampersand" horiz-adv-x="594" d="M265.216 146.688q49.152 0 73.216 29.184t24.064 95.744v35.84h-91.136q-41.984 0-67.584-22.528t-25.6-60.416q0-35.84 24.064-56.832t62.976-20.992zM381.952 42.24v78.848q-41.984-89.088-149.504-89.088-88.064 0-139.776 49.664t-51.712 139.776q0 91.136 79.872 146.432-66.56 48.128-66.56 124.928t59.904 125.44 157.184 48.64 157.696-50.688 60.416-130.56h-135.168q0 27.648-23.040 46.080t-59.904 18.432-58.368-17.92-21.504-45.568q0-26.624 21.504-43.52t58.368-16.896h312.32v-118.784h-82.944v-265.216h-118.784z" />
<glyph unicode="&#x27;" glyph-name="quotesingle" horiz-adv-x="256" d="M76.8 549.12l-15.36 261.12h133.12l-15.36-261.12h-102.4z" />
<glyph unicode="&#x28;" glyph-name="parenleft" horiz-adv-x="348" d="M79.872 334.080q0 264.192 153.6 476.16h114.688q-143.36-197.632-143.36-476.16t143.36-476.16h-114.688q-153.6 211.968-153.6 476.16z" />
<glyph unicode="&#x29;" glyph-name="parenright" horiz-adv-x="348" d="M269.312 334.080q0-264.192-153.6-476.16h-115.712q143.36 197.632 143.36 476.16t-143.36 476.16h115.712q153.6-211.968 153.6-476.16z" />
<glyph unicode="&#x2a;" glyph-name="asterisk" horiz-adv-x="398" d="M242.688 492.8l-46.080 104.448-43.008-104.448-95.232 67.584 79.872 77.824-108.544 7.168 35.84 110.592 92.16-56.32-19.456 110.592h116.736l-18.432-110.592 94.208 56.32 37.888-110.592-112.64-7.168 80.896-76.8z" />
<glyph unicode="&#x2b;" glyph-name="plus" d="M486.4 306.432h-156.672v-165.888h-96.256v165.888h-156.672v92.16h156.672v165.888h96.256v-165.888h156.672v-92.16z" />
<glyph unicode="&#x2c;" glyph-name="comma" horiz-adv-x="239" d="M117.76-101.12h-75.776q51.2 78.848 68.608 133.12-33.792 3.072-54.784 26.624t-20.992 56.32q0 35.84 23.552 59.392t60.416 23.552 61.44-25.6 24.576-66.56q0-83.968-87.040-206.848z" />
<glyph unicode="&#x2d;" glyph-name="hyphen" horiz-adv-x="358" d="M312.32 262.4h-266.24v125.952h266.24v-125.952z" />
<glyph unicode="&#x2e;" glyph-name="period" horiz-adv-x="239" d="M119.808 32q-35.84 0-59.904 24.064t-24.064 58.88q0 35.84 24.064 59.392t59.904 23.552 59.392-23.552 23.552-59.392q0-34.816-23.552-58.88t-59.392-24.064z" />
<glyph unicode="&#x2f;" glyph-name="slash" horiz-adv-x="426" d="M138.24 42.24h-106.496l256 768h106.496z" />
<glyph unicode="&#x30;" glyph-name="zero" d="M281.6 28.928q-107.52 0-167.424 65.024t-59.904 192v281.6q0 125.952 59.904 190.976t167.424 65.024q108.544 0 168.448-65.024t59.904-190.976v-281.6q0-126.976-59.904-192t-168.448-65.024zM281.6 163.072q40.96 0 61.44 27.648t20.48 92.16v286.72q0 64.512-20.992 92.672t-60.928 28.16q-81.92 0-81.92-120.832v-286.72q0-64.512 20.48-92.16t61.44-27.648z" />
<glyph unicode="&#x31;" glyph-name="one" d="M243.712 770.304v39.936h146.432v-768h-148.48v500.736h-137.216v116.736h29.696q58.368 0 83.968 25.6t25.6 84.992z" />
<glyph unicode="&#x32;" glyph-name="two" d="M489.472 604.416q0-56.32-23.040-108.544t-58.88-92.672-72.192-77.312-68.096-76.8-43.008-75.776h272.384v-131.072h-433.152v65.536q0 65.536 29.184 125.44t70.656 104.96 82.944 86.016 70.656 86.528 29.184 89.6q0 92.16-66.56 92.16-68.608 0-68.608-100.352v-56.32h-143.36v63.488q0 106.496 59.392 165.376t151.552 58.88 151.552-57.344 59.392-161.792z" />
<glyph unicode="&#x33;" glyph-name="three" d="M291.84 28.928q-98.304 0-162.816 55.296t-64.512 152.576v56.32h143.36v-40.96q0-92.16 83.968-92.16 84.992 0 84.992 93.184v24.576q0 91.136-90.112 91.136h-56.32v132.096h56.32q72.704 0 72.704 84.992v32.768q0 73.728-67.584 73.728t-67.584-72.704v-33.792h-143.36v41.984q0 94.208 59.392 144.896t151.552 50.688q91.136 0 151.040-50.176t59.904-139.264v-38.912q0-97.28-80.896-146.432 98.304-51.2 98.304-160.768v-51.2q0-97.28-65.024-152.576t-163.328-55.296z" />
<glyph unicode="&#x34;" glyph-name="four" d="M159.744 285.952h131.072v399.36zM518.144 154.88h-81.92v-112.64h-145.408v112.64h-248.832v143.36l172.032 512h222.208v-524.288h81.92v-131.072z" />
<glyph unicode="&#x35;" glyph-name="five" d="M282.624 28.928q-94.208 0-155.136 57.344t-60.928 160.768v35.84h141.312v-17.408q0-105.472 74.752-105.472 73.728 0 73.728 99.328v76.8q0 105.472-73.728 105.472-56.32 0-69.632-51.2h-136.192v419.84h397.312v-130.048h-261.12v-160.768q39.936 45.056 102.4 45.056 89.088 0 135.168-56.32t46.080-165.888v-82.944q0-109.568-60.416-169.984t-153.6-60.416z" />
<glyph unicode="&#x36;" glyph-name="six" d="M509.952 265.472q0-111.616-64-174.080t-164.352-62.464-163.84 64.512-63.488 182.272v302.080q0 117.76 62.976 181.76t164.352 64q95.232 0 157.696-57.344t62.464-159.744v-26.624h-145.408v16.384q0 96.256-74.752 96.256-81.92 0-81.92-119.808v-112.64q43.008 63.488 124.928 63.488 78.848 0 132.096-59.392t53.248-166.912v-31.744zM199.68 285.952v-18.432q0-107.52 82.944-107.52 83.968 0 83.968 107.52v18.432q0 107.52-83.968 107.52-82.944 0-82.944-107.52z" />
<glyph unicode="&#x37;" glyph-name="seven" d="M332.8 98.56v-56.32h-148.48v34.816q0 96.256 12.288 177.664t38.912 154.112 49.152 121.344 62.464 123.392q9.216 17.408 14.336 26.624h-279.552v130.048h400.384v-179.2q-6.144-12.288-27.648-54.784t-26.624-54.272-22.016-48.64-22.016-53.248-16.896-50.688-15.36-58.88-9.728-60.416-7.68-72.704-1.536-78.848z" />
<glyph unicode="&#x38;" glyph-name="eight" d="M281.6 28.928q-98.304 0-162.816 55.808t-64.512 155.136v46.080q0 113.664 99.328 163.84-78.848 49.152-78.848 145.408v38.912q0 89.088 58.368 139.264t148.48 50.176 148.992-50.176 58.88-139.264v-38.912q0-96.256-79.872-145.408 100.352-51.2 100.352-163.84v-46.080q0-99.328-65.024-155.136t-163.328-55.808zM214.016 616.704v-25.6q0-82.944 67.584-82.944t67.584 82.944v25.6q0 73.728-67.584 73.728t-67.584-73.728zM197.632 288v-32.768q0-92.16 83.968-92.16 84.992 0 84.992 92.16v32.768q0 92.16-84.992 92.16-83.968 0-83.968-92.16z" />
<glyph unicode="&#x39;" glyph-name="nine" d="M363.52 567.552v17.408q0 107.52-82.944 107.52t-82.944-107.52v-17.408q0-107.52 82.944-107.52t82.944 107.52zM281.6 28.928q-95.232 0-157.696 57.344t-62.464 159.744v26.624h146.432v-16.384q0-96.256 73.728-96.256 81.92 0 81.92 120.832v111.616q-43.008-63.488-124.928-63.488-78.848 0-131.584 59.392t-52.736 166.912v32.768q0 111.616 63.488 173.568t163.84 61.952q101.376 0 164.864-64.512t63.488-181.248v-302.080q0-117.76-63.488-182.272t-164.864-64.512z" />
<glyph unicode="&#x3a;" glyph-name="colon" horiz-adv-x="239" d="M119.808 398.592q-35.84 0-59.904 24.064t-24.064 58.88q0 35.84 24.064 59.392t59.904 23.552 59.392-23.552 23.552-59.392q0-34.816-23.552-58.88t-59.392-24.064zM119.808 32q-35.84 0-59.904 24.064t-24.064 58.88q0 35.84 24.064 59.392t59.904 23.552 59.392-23.552 23.552-59.392q0-34.816-23.552-58.88t-59.392-24.064z" />
<glyph unicode="&#x3b;" glyph-name="semicolon" horiz-adv-x="239" d="M119.808 398.592q-35.84 0-59.904 24.064t-24.064 58.88q0 35.84 24.064 59.392t59.904 23.552 59.392-23.552 23.552-59.392q0-34.816-23.552-58.88t-59.392-24.064zM117.76-101.12h-75.776q51.2 78.848 68.608 133.12-33.792 3.072-54.784 26.624t-20.992 56.32q0 35.84 23.552 59.392t60.416 23.552 61.44-25.6 24.576-66.56q0-83.968-87.040-206.848z" />
<glyph unicode="&#x3c;" glyph-name="less" d="M486.4 107.776l-409.6 199.68v91.136l409.6 199.68v-106.496l-290.816-139.264 290.816-139.264v-105.472z" />
<glyph unicode="&#x3d;" glyph-name="equal" d="M76.8 408.832v92.16h409.6v-92.16h-409.6zM76.8 204.032v92.16h409.6v-92.16h-409.6z" />
<glyph unicode="&#x3e;" glyph-name="greater" d="M76.8 107.776v105.472l291.84 139.264-291.84 139.264v106.496l409.6-199.68v-91.136z" />
<glyph unicode="&#x3f;" glyph-name="question" horiz-adv-x="509" d="M486.4 617.728q0-40.96-16.384-75.776t-39.936-58.88-47.616-47.104-40.96-52.224-17.92-62.976l-1.024-22.528h-131.072v30.72q0 40.96 15.36 77.312t37.888 61.952 45.056 48.128 37.888 48.128 15.36 51.2q0 74.752-86.016 74.752-41.984 0-67.072-25.088t-25.088-79.36v-32.768h-144.384v44.032q0 106.496 68.096 164.864t168.448 58.368q102.4 0 165.888-53.76t63.488-148.992zM257.024 32q-32.768 0-56.32 23.552t-23.552 56.32 23.552 55.808 56.32 23.040q33.792 0 56.832-23.040t23.040-55.808-23.040-56.32-56.832-23.552z" />
<glyph unicode="&#x40;" glyph-name="at" horiz-adv-x="882" d="M435.2-121.6q-166.912 0-280.576 114.176t-113.664 280.064q0 166.912 113.664 280.576t280.576 113.664q171.008 0 288.256-112.64t117.248-273.408q0-123.904-46.592-186.368t-125.44-62.464q-99.328 0-140.288 73.728-51.2-73.728-154.624-73.728-64.512 0-111.616 34.816t-47.104 98.304q0 52.224 30.208 82.944t73.728 40.448 86.528 15.36 73.216 17.92 30.208 36.864q0 23.552-20.992 38.4t-52.736 14.848q-34.816 0-54.784-17.408t-19.968-50.176h-131.072q0 84.992 59.904 126.464t147.968 41.472q87.040 0 145.92-40.96t58.88-124.928v-176.128q0-71.68 52.224-71.68 37.888 0 60.416 47.104t22.528 135.168q0 137.216-98.816 232.448t-243.2 95.232q-140.288 0-235.008-96.256t-94.72-239.616q0-142.336 95.232-239.104t234.496-96.768q83.968 0 159.744 40.96l24.576-54.272q-84.992-45.056-184.32-45.056zM408.576 135.424q43.008 0 71.68 24.064t28.672 66.048v23.552q-22.528-9.216-67.584-16.896t-70.144-18.944-25.088-35.84q0-41.984 62.464-41.984z" />
<glyph unicode="&#x41;" glyph-name="A" horiz-adv-x="522" d="M321.536 326.912l-60.416 370.688-60.416-370.688h120.832zM368.64 42.24l-25.6 156.672h-163.84l-25.6-156.672h-145.408l139.264 768h227.328l140.288-768h-146.432z" />
<glyph unicode="&#x42;" glyph-name="B" d="M278.528 682.24h-70.656v-174.080h70.656q86.016 0 86.016 87.040v10.24q0 76.8-86.016 76.8zM294.912 380.16h-87.040v-209.92h87.040q87.040 0 87.040 104.448v10.24q0 95.232-87.040 95.232zM61.44 42.24v768h229.376q99.328 0 158.208-49.664t58.88-140.8v-10.24q0-106.496-93.184-149.504 54.272-22.528 84.992-68.096t30.72-110.080v-20.48q0-104.448-59.392-161.792t-157.696-57.344h-251.904z" />
<glyph unicode="&#x43;" glyph-name="C" horiz-adv-x="584" d="M384 354.56h148.48v-58.368q0-131.072-63.488-199.168t-177.152-68.096q-114.688 0-177.664 68.096t-62.976 199.168v261.12q0 131.072 62.976 198.656t177.664 67.584 177.664-67.584 62.976-198.656v-49.152h-148.48v51.2q0 71.68-23.552 102.4t-68.608 30.72-68.608-30.72-23.552-102.4v-266.24q0-71.68 23.552-102.4t68.608-30.72 68.608 30.72 23.552 102.4v61.44z" />
<glyph unicode="&#x44;" glyph-name="D" horiz-adv-x="584" d="M291.84 810.24q113.664 0 177.152-65.536t63.488-192.512v-250.88q0-128-62.976-193.536t-177.664-65.536h-230.4v768h230.4zM291.84 173.312q45.056 0 68.608 28.672t23.552 96.256v256q0 67.584-23.552 96.768t-68.608 29.184h-81.92v-506.88h81.92z" />
<glyph unicode="&#x45;" glyph-name="E" horiz-adv-x="465" d="M61.44 42.24v768h367.616v-130.048h-220.16v-179.2h199.68v-131.072h-199.68v-196.608h220.16v-131.072h-367.616z" />
<glyph unicode="&#x46;" glyph-name="F" horiz-adv-x="444" d="M396.288 349.44h-187.392v-307.2h-147.456v768h362.496v-130.048h-215.040v-199.68h187.392v-131.072z" />
<glyph unicode="&#x47;" glyph-name="G" horiz-adv-x="589" d="M413.696 42.24v79.872q-46.080-93.184-152.576-93.184-99.328 0-154.624 68.096t-55.296 199.168v261.12q0 131.072 62.976 198.656t177.664 67.584 177.664-67.584 62.976-198.656v-34.816h-148.48v36.864q0 71.68-23.552 102.4t-68.608 30.72-68.608-30.72-23.552-102.4v-266.24q0-71.68 23.552-102.4t68.608-30.72q92.16 0 92.16 125.952v40.96h-104.448v124.928h252.928v-409.6h-118.784z" />
<glyph unicode="&#x48;" glyph-name="H" horiz-adv-x="604" d="M394.24 42.24v328.704h-184.32v-328.704h-148.48v768h148.48v-308.224h184.32v308.224h148.48v-768h-148.48z" />
<glyph unicode="&#x49;" glyph-name="I" horiz-adv-x="271" d="M209.92 42.24h-148.48v768h148.48v-768z" />
<glyph unicode="&#x4a;" glyph-name="J" horiz-adv-x="536" d="M333.824 810.24h148.48v-555.008q0-109.568-61.44-167.936t-161.792-58.368q-99.328 0-161.28 58.368t-61.952 167.936v80.896h148.48v-75.776q0-100.352 74.752-100.352 36.864 0 55.808 22.528t18.944 77.824v549.888z" />
<glyph unicode="&#x4b;" glyph-name="K" horiz-adv-x="536" d="M366.592 42.24l-157.696 370.688v-370.688h-147.456v768h147.456v-368.64l159.744 368.64h157.696l-176.128-362.496 185.344-405.504h-168.96z" />
<glyph unicode="&#x4c;" glyph-name="L" horiz-adv-x="444" d="M61.44 42.24v768h148.48v-636.928h224.256v-131.072h-372.736z" />
<glyph unicode="&#x4d;" glyph-name="M" horiz-adv-x="799" d="M314.368 42.24l-121.856 671.744v-671.744h-131.072v768h239.616l98.304-585.728 95.232 585.728h242.688v-768h-138.24v666.624l-121.856-666.624h-162.816z" />
<glyph unicode="&#x4e;" glyph-name="N" horiz-adv-x="604" d="M315.392 42.24l-126.976 665.6v-665.6h-126.976v768h228.352l125.952-656.384v656.384h126.976v-768h-227.328z" />
<glyph unicode="&#x4f;" glyph-name="O" horiz-adv-x="584" d="M291.84 28.928q-114.688 0-177.664 67.584t-62.976 199.68v261.12q0 131.072 62.976 198.656t177.664 67.584 177.664-67.584 62.976-198.656v-261.12q0-132.096-62.976-199.68t-177.664-67.584zM291.84 160q45.056 0 68.608 30.72t23.552 102.4v266.24q0 71.68-23.552 102.4t-68.608 30.72-68.608-30.72-23.552-102.4v-266.24q0-71.68 23.552-102.4t68.608-30.72z" />
<glyph unicode="&#x50;" glyph-name="P" horiz-adv-x="543" d="M284.672 682.24h-76.8v-232.448h76.8q90.112 0 90.112 107.52v25.6q0 99.328-90.112 99.328zM293.888 321.792h-86.016v-279.552h-146.432v768h232.448q102.4 0 162.816-56.32t60.416-160.768v-46.080q0-107.52-60.416-166.4t-162.816-58.88z" />
<glyph unicode="&#x51;" glyph-name="Q" horiz-adv-x="584" d="M291.84 160q19.456 0 36.864 6.144l-100.352 145.408h126.976l27.648-43.008q1.024 8.192 1.024 24.576v266.24q0 71.68-23.552 102.4t-68.608 30.72-68.608-30.72-23.552-102.4v-266.24q0-71.68 23.552-102.4t68.608-30.72zM419.84 42.24l-35.84 54.272q-25.6-67.584-117.76-67.584-97.28 0-156.16 68.608t-58.88 198.656v261.12q0 131.072 62.976 198.656t177.664 67.584 177.664-67.584 62.976-198.656v-250.88q0-108.544-54.272-155.648l69.632-108.544h-128z" />
<glyph unicode="&#x52;" glyph-name="R" d="M288.768 682.24h-79.872v-205.824h79.872q90.112 0 90.112 101.376v13.312q0 91.136-90.112 91.136zM208.896 420.096v-377.856h-147.456v768h243.712q99.328 0 160.256-52.224t60.928-147.456v-29.696q0-76.8-39.936-124.928t-108.544-65.536l169.984-348.16h-168.96z" />
<glyph unicode="&#x53;" glyph-name="S" horiz-adv-x="497" d="M41.984 622.848q0 101.376 57.856 151.040t150.016 49.664q91.136 0 150.016-52.736t58.88-152.064v-54.272h-142.336v51.2q0 81.92-66.56 81.92-28.672 0-46.592-17.408t-17.92-50.176q0-34.816 18.432-58.368t59.392-54.272l88.064-64.512q117.76-88.064 117.76-209.92 0-102.4-61.952-158.208t-156.16-55.808q-93.184 0-155.136 54.784t-61.952 151.040v63.488h143.36v-56.32q0-39.936 19.968-63.488t53.76-23.552 53.76 18.944 19.968 51.712q0 37.888-19.968 64.512t-61.952 58.368l-83.968 62.464q-56.32 40.96-86.528 90.624t-30.208 121.344z" />
<glyph unicode="&#x54;" glyph-name="T" horiz-adv-x="444" d="M434.176 680.192h-137.216v-637.952h-148.48v637.952h-138.24v130.048h423.936v-130.048z" />
<glyph unicode="&#x55;" glyph-name="U" horiz-adv-x="584" d="M56.32 810.24h148.48v-529.408q0-64.512 22.016-92.672t65.024-28.16 65.024 28.16 22.016 92.672v529.408h148.48v-527.36q0-124.928-61.952-189.44t-173.568-64.512-173.568 64.512-61.952 189.44v527.36z" />
<glyph unicode="&#x56;" glyph-name="V" horiz-adv-x="522" d="M147.456 42.24l-139.264 768h145.408l107.52-655.36 107.52 655.36h146.432l-140.288-768h-227.328z" />
<glyph unicode="&#x57;" glyph-name="W" horiz-adv-x="768" d="M101.376 42.24l-93.184 768h140.288l63.488-634.88 72.704 634.88h196.608l74.752-631.808 63.488 631.808h141.312l-94.208-768h-208.896l-73.728 641.024-71.68-641.024h-210.944z" />
<glyph unicode="&#x58;" glyph-name="X" horiz-adv-x="502" d="M347.136 42.24l-96.256 291.84-96.256-291.84h-154.624l157.696 394.24-148.48 373.76h153.6l88.064-275.456 88.064 275.456h153.6l-148.48-373.76 157.696-394.24h-154.624z" />
<glyph unicode="&#x59;" glyph-name="Y" horiz-adv-x="492" d="M320.512 321.792v-279.552h-148.48v279.552l-172.032 488.448h144.384l101.376-317.44 101.376 317.44h144.384z" />
<glyph unicode="&#x5a;" glyph-name="Z" horiz-adv-x="451" d="M435.2 42.24h-409.6v161.792l260.096 476.16h-254.976v130.048h394.24v-160.768l-259.072-476.16h269.312v-131.072z" />
<glyph unicode="&#x5b;" glyph-name="bracketleft" horiz-adv-x="348" d="M84.992-142.080v952.32h261.12v-104.448h-133.12v-743.424h133.12v-104.448h-261.12z" />
<glyph unicode="&#x5c;" glyph-name="backslash" horiz-adv-x="426" d="M287.744 42.24l-256 768h106.496l256-768h-106.496z" />
<glyph unicode="&#x5d;" glyph-name="bracketright" horiz-adv-x="348" d="M3.072-142.080v104.448h133.12v743.424h-133.12v104.448h261.12v-952.32h-261.12z" />
<glyph unicode="&#x5e;" glyph-name="asciicircum" d="M420.864 400.64l-139.264 291.84-139.264-291.84h-105.472l199.68 409.6h91.136l199.68-409.6h-106.496z" />
<glyph unicode="&#x5f;" glyph-name="underscore" horiz-adv-x="512" d="M465.92-153.344h-419.84v94.208h419.84v-94.208z" />
<glyph unicode="&#x60;" glyph-name="grave" horiz-adv-x="512" d="M202.752 656.64l-95.232 153.6h153.6l59.392-153.6h-117.76z" />
<glyph unicode="&#x61;" glyph-name="a" d="M249.856 141.568q49.152 0 81.92 27.648t32.768 76.8v26.624q-24.576-11.264-74.752-20.992t-77.312-22.016-27.136-38.912q0-23.552 17.92-36.352t46.592-12.8zM367.616 42.24v77.824q-46.080-88.064-162.816-88.064-69.632 0-118.784 37.376t-49.152 109.056q0 51.2 24.064 84.48t60.416 46.592 78.336 22.528 78.336 13.312 60.416 16.896 24.064 36.352q0 26.624-22.528 41.984t-58.368 15.36q-38.912 0-60.928-20.48t-22.016-57.344h-146.432q0 94.208 67.584 140.288t165.888 46.080q97.28 0 161.28-41.984t64-128v-352.256h-143.36z" />
<glyph unicode="&#x62;" glyph-name="b" horiz-adv-x="630" d="M361.472 32q-93.184 0-153.6 74.752v-64.512h-146.432v768h148.48v-317.44q60.416 71.68 151.552 71.68 104.448 0 171.008-73.728t66.56-192.512-66.56-192.512-171.008-73.728zM331.776 432.384q-53.248 0-87.552-36.864t-34.304-97.28 34.304-97.28 87.552-36.864 87.552 36.864 34.304 97.28-34.304 97.28-87.552 36.864z" />
<glyph unicode="&#x63;" glyph-name="c" horiz-adv-x="586" d="M551.936 358.656h-151.552q-9.216 35.84-38.4 54.784t-68.096 18.944q-52.224 0-84.992-36.864t-32.768-97.28 32.768-97.28 84.992-36.864q39.936 0 69.632 22.016t38.912 62.976h151.552q-10.24-98.304-81.92-157.696t-179.2-59.392q-113.664 0-187.904 74.752t-74.24 191.488 74.24 191.488 187.904 74.752q104.448 0 174.592-56.32t84.48-149.504z" />
<glyph unicode="&#x64;" glyph-name="d" horiz-adv-x="630" d="M297.984 432.384q-53.248 0-87.040-36.864t-33.792-97.28 33.792-97.28 87.040-36.864 87.552 36.864 34.304 97.28-34.304 97.28-87.552 36.864zM422.912 42.24v65.536q-59.392-75.776-153.6-75.776-105.472 0-172.032 73.728t-66.56 192.512 66.56 192.512 172.032 73.728q90.112 0 150.528-71.68v317.44h148.48v-768h-145.408z" />
<glyph unicode="&#x65;" glyph-name="e" horiz-adv-x="580" d="M289.792 442.624q-97.28 0-115.712-98.304h231.424q-18.432 98.304-115.712 98.304zM536.576 204.032q-23.552-83.968-87.552-128t-159.232-44.032q-113.664 0-186.368 74.752t-72.704 191.488 72.704 191.488 186.368 74.752 186.368-74.752 72.704-191.488q0-14.336-2.048-40.96h-373.76q18.432-103.424 120.832-103.424 70.656 0 92.16 50.176h150.528z" />
<glyph unicode="&#x66;" glyph-name="f" horiz-adv-x="389" d="M240.64 621.824v-67.584h125.952v-119.808h-125.952v-392.192h-148.48v392.192h-73.728v119.808h73.728v72.704q0 93.184 56.832 143.36t147.968 50.176q49.152 0 76.8-9.216v-124.928q-24.576 9.216-57.344 9.216-35.84 0-55.808-18.944t-19.968-54.784z" />
<glyph unicode="&#x67;" glyph-name="g" horiz-adv-x="553" d="M266.24 301.312q33.792 0 55.808 20.992t22.016 54.784q0 34.816-21.504 55.808t-56.32 20.992-56.32-20.992-21.504-55.808q0-33.792 22.016-54.784t55.808-20.992zM541.696-55.040q0-76.8-61.44-122.88t-184.32-46.080h-35.84q-117.76 0-178.176 37.888t-60.416 100.352q0 66.56 77.824 102.4-67.584 35.84-67.584 104.448 0 40.96 24.576 71.168t69.632 44.544q-68.608 53.248-68.608 140.288 0 80.896 60.416 134.144t148.48 53.248q92.16 0 152.576-57.344l20.48 30.72q10.24 15.36 20.48 20.992t30.72 5.632h52.224v-134.144h-75.776q8.192-26.624 8.192-53.248 0-81.92-60.928-134.656t-147.968-52.736q-43.008 0-82.944 14.336-15.36-4.096-25.088-15.36t-9.728-27.648q0-47.104 64.512-47.104h110.592q218.112 0 218.112-168.96zM273.408-111.36h19.456q116.736 0 116.736 57.344 0 50.176-101.376 50.176h-53.248q-102.4 0-102.4-50.176 0-57.344 120.832-57.344z" />
<glyph unicode="&#x68;" glyph-name="h" horiz-adv-x="599" d="M209.92 324.864v-282.624h-148.48v768h148.48v-324.608q50.176 78.848 146.432 78.848 82.944 0 134.656-53.248t51.712-152.576v-316.416h-148.48v282.624q0 57.344-24.064 87.040t-68.096 29.696-68.096-29.696-24.064-87.040z" />
<glyph unicode="&#x69;" glyph-name="i" horiz-adv-x="271" d="M136.192 643.328q-37.888 0-63.488 25.088t-25.6 60.928q0 36.864 25.6 61.44t63.488 24.576 62.976-24.576 25.088-61.44-25.088-61.44-62.976-24.576zM209.92 42.24h-148.48v512h148.48v-512z" />
<glyph unicode="&#x6a;" glyph-name="j" horiz-adv-x="271" d="M136.192 643.328q-37.888 0-63.488 25.088t-25.6 60.928q0 36.864 25.6 61.44t63.488 24.576 62.976-24.576 25.088-61.44-25.088-61.44-62.976-24.576zM61.44-25.344v579.584h148.48v-584.704q0-186.368-188.416-186.368-40.96 0-65.536 6.144v122.88q18.432-3.072 38.912-3.072 33.792 0 50.176 14.336t16.384 51.2z" />
<glyph unicode="&#x6b;" glyph-name="k" horiz-adv-x="579" d="M396.288 42.24l-186.368 268.288v-268.288h-148.48v768h148.48v-477.184l168.96 221.184h181.248l-197.632-231.424 208.896-280.576h-175.104z" />
<glyph unicode="&#x6c;" glyph-name="l" horiz-adv-x="271" d="M209.92 42.24h-148.48v768h148.48v-768z" />
<glyph unicode="&#x6d;" glyph-name="m" horiz-adv-x="896" d="M209.92 333.056v-290.816h-148.48v512h146.432v-66.56q46.080 76.8 139.264 76.8 113.664 0 157.696-93.184 22.528 44.032 64 68.608t93.696 24.576q78.848 0 128-50.688t49.152-146.944v-324.608h-148.48v290.816q0 53.248-21.504 80.896t-61.44 27.648q-82.944 0-82.944-108.544v-290.816h-148.48v290.816q0 108.544-83.968 108.544-39.936 0-61.44-27.648t-21.504-80.896z" />
<glyph unicode="&#x6e;" glyph-name="n" horiz-adv-x="599" d="M209.92 324.864v-282.624h-148.48v512h146.432v-72.704q48.128 82.944 148.48 82.944 82.944 0 134.656-53.248t51.712-152.576v-316.416h-148.48v282.624q0 57.344-24.064 87.040t-68.096 29.696-68.096-29.696-24.064-87.040z" />
<glyph unicode="&#x6f;" glyph-name="o" horiz-adv-x="594" d="M296.96 32q-115.712 0-190.976 74.24t-75.264 192 75.264 192 190.976 74.24 190.976-74.24 75.264-192-75.264-192-190.976-74.24zM296.96 164.096q53.248 0 87.552 37.376t34.304 96.768q0 60.416-34.304 97.28t-87.552 36.864-87.552-36.864-34.304-97.28q0-59.392 34.304-96.768t87.552-37.376z" />
<glyph unicode="&#x70;" glyph-name="p" horiz-adv-x="630" d="M331.776 164.096q53.248 0 87.552 36.864t34.304 97.28-34.304 97.28-87.552 36.864-87.552-36.864-34.304-97.28 34.304-97.28 87.552-36.864zM361.472 32q-91.136 0-151.552 71.68v-317.44h-148.48v768h146.432v-64.512q60.416 74.752 153.6 74.752 104.448 0 171.008-73.728t66.56-192.512-66.56-192.512-171.008-73.728z" />
<glyph unicode="&#x71;" glyph-name="q" horiz-adv-x="630" d="M568.32-213.76h-148.48v317.44q-60.416-71.68-150.528-71.68-105.472 0-172.032 73.728t-66.56 192.512 66.56 192.512 172.032 73.728q94.208 0 153.6-75.776v65.536h145.408v-768zM297.984 164.096q53.248 0 87.552 36.864t34.304 97.28-34.304 97.28-87.552 36.864-87.040-36.864-33.792-97.28 33.792-97.28 87.040-36.864z" />
<glyph unicode="&#x72;" glyph-name="r" horiz-adv-x="413" d="M209.92 301.312v-259.072h-148.48v512h143.36v-89.088q53.248 99.328 164.864 99.328 19.456 0 25.6-2.048v-151.552q-22.528 8.192-53.248 8.192-63.488 0-97.792-30.72t-34.304-87.040z" />
<glyph unicode="&#x73;" glyph-name="s" horiz-adv-x="516" d="M483.328 193.792q0-74.752-60.928-118.272t-156.16-43.52q-101.376 0-166.912 48.128t-65.536 131.072h143.36q0-35.84 24.576-55.296t63.488-19.456q72.704 0 72.704 49.152 0 23.552-22.016 36.864t-54.784 17.92-70.656 14.336-70.656 23.040-54.784 46.592-22.016 82.432q0 71.68 58.88 114.688t148.992 43.008q95.232 0 159.232-50.176t64-122.88h-143.36q0 29.696-22.528 49.152t-56.32 19.456q-30.72 0-49.152-12.288t-18.432-33.792q0-20.48 22.016-33.28t55.296-17.408 72.192-14.336 72.192-24.064 55.296-47.616 22.016-83.456z" />
<glyph unicode="&#x74;" glyph-name="t" horiz-adv-x="399" d="M240.64 225.536q0-34.816 16.896-51.2t52.736-16.384q29.696 0 56.32 9.216v-122.88q-40.96-12.288-86.016-12.288-89.088 0-138.752 41.984t-49.664 143.36v217.088h-73.728v119.808h73.728v151.552h148.48v-151.552h125.952v-119.808h-125.952v-208.896z" />
<glyph unicode="&#x75;" glyph-name="u" horiz-adv-x="594" d="M387.072 42.24v72.704q-48.128-82.944-146.432-82.944-81.92 0-133.12 53.248t-51.2 152.576v316.416h148.48v-282.624q0-57.344 23.552-87.040t66.56-29.696 66.048 29.696 23.040 87.040v282.624h148.48v-512h-145.408z" />
<glyph unicode="&#x76;" glyph-name="v" horiz-adv-x="512" d="M146.432 42.24l-138.24 512h148.48l99.328-410.624 99.328 410.624h148.48l-138.24-512h-219.136z" />
<glyph unicode="&#x77;" glyph-name="w" horiz-adv-x="783" d="M126.976 42.24l-114.688 512h135.168l77.824-399.36 77.824 399.36h177.152l77.824-399.36 77.824 399.36h135.168l-114.688-512h-186.368l-77.824 401.408-78.848-401.408h-186.368z" />
<glyph unicode="&#x78;" glyph-name="x" horiz-adv-x="532" d="M367.616 42.24l-105.472 176.128-96.256-176.128h-165.888l168.96 264.192-159.744 247.808h163.84l96.256-163.84 90.112 163.84h163.84l-160.768-248.832 169.984-263.168h-164.864z" />
<glyph unicode="&#x79;" glyph-name="y" horiz-adv-x="513" d="M94.208-224q-47.104 0-87.040 11.264v118.784q43.008-10.24 71.68-10.24 72.704 0 111.616 63.488l-186.368 594.944h146.432l104.448-400.384 108.544 400.384h145.408l-165.888-534.528q-34.816-121.856-91.648-182.784t-157.184-60.928z" />
<glyph unicode="&#x7a;" glyph-name="z" horiz-adv-x="481" d="M460.8 42.24h-430.080v151.552l265.216 240.64h-260.096v119.808h404.48v-150.528l-264.192-240.64h284.672v-120.832z" />
<glyph unicode="&#x7b;" glyph-name="braceleft" horiz-adv-x="348" d="M346.112-142.080h-61.44q-67.584 0-110.080 41.984t-42.496 113.664v196.608q0 29.696-15.872 45.568t-34.304 15.872h-47.104v124.928h47.104q18.432 0 34.304 15.872t15.872 45.568v196.608q0 71.68 42.496 113.664t110.080 41.984h61.44v-104.448h-29.696q-25.6 0-40.96-18.432t-15.36-53.248v-193.536q0-64.512-58.368-106.496 58.368-41.984 58.368-106.496v-193.536q0-34.816 15.36-53.248t40.96-18.432h29.696v-104.448z" />
<glyph unicode="&#x7c;" glyph-name="bar" horiz-adv-x="282" d="M190.464-213.76h-99.328v1024h99.328v-1024z" />
<glyph unicode="&#x7d;" glyph-name="braceright" horiz-adv-x="348" d="M217.088 13.568q0-70.656-42.496-113.152t-110.080-42.496h-61.44v104.448h29.696q25.6 0 40.96 18.432t15.36 53.248v193.536q0 64.512 57.344 106.496-57.344 41.984-57.344 106.496v193.536q0 34.816-15.36 53.248t-40.96 18.432h-29.696v104.448h61.44q67.584 0 110.080-42.496t42.496-113.152v-196.608q0-29.696 15.36-45.568t33.792-15.872h47.104v-124.928h-47.104q-18.432 0-33.792-15.872t-15.36-45.568v-196.608z" />
<glyph unicode="&#x7e;" glyph-name="asciitilde" d="M205.824 335.104q-16.384 0-27.648-11.264t-11.264-31.744v-16.384h-95.232v31.744q0 60.416 31.232 94.208t81.408 33.792q46.080 0 103.424-32.768t76.8-32.768q14.336 0 23.552 11.264t9.216 32.768v16.384h94.208v-31.744q0-61.44-30.208-94.72t-79.36-33.28q-36.864 0-93.184 32.256t-82.944 32.256z" />
<glyph unicode="&#xa1;" glyph-name="exclamdown" horiz-adv-x="280" d="M139.264 564.48q33.792 0 56.832-23.040t23.040-55.808-23.040-56.32-56.832-23.552q-32.768 0-55.808 23.552t-23.040 56.32 23.040 55.808 55.808 23.040zM74.752 298.24h130.048l13.312-512h-156.672z" />
<glyph unicode="&#xa2;" glyph-name="cent" d="M155.648 426.24q0-53.248 25.088-88.576t68.096-46.592v270.336q-41.984-11.264-67.584-47.104t-25.6-88.064zM545.792 377.088q-9.216-89.088-70.144-146.944t-155.136-68.096v-119.808h-71.68v119.808q-104.448 11.264-169.984 83.968t-65.536 180.224 65.536 180.224 169.984 83.968v119.808h71.68v-119.808q91.136-10.24 151.040-64.512t72.192-139.264h-149.504q-13.312 58.368-73.728 73.728v-268.288q62.464 19.456 76.8 84.992h148.48z" />
<glyph unicode="&#xa3;" glyph-name="sterling" d="M503.808 173.312v-131.072h-448.512v65.536q68.608 79.872 90.624 126.976t22.016 116.736q0 8.192-2.048 22.528h-100.352v77.824h63.488l-9.216 13.312q-9.216 13.312-9.728 14.848t-8.704 13.824-9.728 15.872-7.68 15.36-7.68 17.408-5.12 16.384-4.608 19.456-2.56 19.456-1.536 20.992q0 98.304 61.44 151.552t157.696 53.248q95.232 0 156.672-58.368t61.44-163.84v-23.552h-143.36v15.36q0 53.248-19.456 76.288t-56.32 23.040q-74.752 0-74.752-76.8 0-25.6 10.752-51.712t31.232-59.392 29.696-52.736h169.984v-77.824h-148.48q1.024-5.12 1.024-15.36 0-107.52-57.344-185.344h261.12z" />
<glyph unicode="&#xa4;" glyph-name="currency" d="M398.336 169.216l-63.488 62.464q-27.648-10.24-53.248-10.24-26.624 0-55.296 10.24l-56.32-56.32-65.536 65.536 54.272 54.272q-12.288 26.624-12.288 56.32 0 31.744 12.288 56.32l-60.416 61.44 67.584 67.584 63.488-63.488q23.552 9.216 52.224 9.216 26.624 0 54.272-10.24l58.368 58.368 65.536-65.536-56.32-56.32q13.312-28.672 13.312-57.344 0-29.696-12.288-54.272l61.44-60.416zM281.6 300.288q21.504 0 35.84 14.336t14.336 36.864-14.336 36.864-35.84 14.336-36.352-14.336-14.848-36.864 14.848-36.864 36.352-14.336z" />
<glyph unicode="&#xa5;" glyph-name="yen" d="M472.064 293.12h-115.712v-250.88h-148.48v250.88h-119.808v78.848h119.808v111.616h-119.808v77.824h83.968l-140.288 248.832h142.336l107.52-204.8 107.52 204.8h142.336l-139.264-248.832h79.872v-77.824h-115.712v-111.616h115.712v-78.848z" />
<glyph unicode="&#xa6;" glyph-name="brokenbar" horiz-adv-x="282" d="M190.464 400.64h-99.328v409.6h99.328v-409.6zM190.464-213.76h-99.328v409.6h99.328v-409.6z" />
<glyph unicode="&#xa7;" glyph-name="section" horiz-adv-x="510" d="M254.976 226.56q33.792 0 55.296 19.968t21.504 51.712q0 32.768-21.504 52.224t-55.296 19.456q-32.768 0-54.784-19.456t-22.016-52.224q0-31.744 22.016-51.712t54.784-19.968zM257.024-227.072q-91.136 0-150.016 49.664t-58.88 142.848v38.912h142.336v-35.84q0-73.728 66.56-73.728 29.696 0 47.104 14.848t17.408 41.472q0 20.48-11.264 37.888t-24.576 27.648-41.984 29.696l-81.92 54.272q-60.416 40.96-92.16 84.48t-31.744 104.96q0 113.664 113.664 165.888-54.272 45.056-79.36 84.992t-25.088 95.232q0 95.232 57.856 141.312t150.016 46.080q91.136 0 149.504-49.664t58.368-143.872v-37.888h-141.312v35.84q0 73.728-66.56 73.728-29.696 0-47.104-14.848t-17.408-42.496q0-28.672 17.92-48.128t59.904-47.104l87.040-57.344q56.32-36.864 87.040-80.384t30.72-104.96q0-111.616-110.592-164.864 102.4-74.752 102.4-181.248 0-95.232-57.856-141.312t-150.016-46.080z" />
<glyph unicode="&#xa8;" glyph-name="dieresis" horiz-adv-x="512" d="M360.448 661.76q-28.672 0-49.664 20.992t-20.992 50.688 20.992 50.688 49.664 20.992q30.72 0 51.2-20.992t20.48-50.688-20.48-50.688-51.2-20.992zM151.552 661.76q-28.672 0-50.176 20.992t-21.504 50.688 20.992 50.688 50.688 20.992 50.688-20.992 20.992-50.688-20.992-50.688-50.688-20.992z" />
<glyph unicode="&#xa9;" glyph-name="copyright" horiz-adv-x="850" d="M424.96 32q-166.912 0-278.016 115.2t-111.104 279.040q0 164.864 111.104 279.552t278.016 114.688 278.016-114.688 111.104-279.552q0-163.84-111.104-279.040t-278.016-115.2zM424.96 762.112q-139.264 0-231.936-97.792t-92.672-238.080 92.672-237.568 231.936-97.28 232.448 97.28 93.184 237.568-93.184 238.080-232.448 97.792zM636.928 474.368h-121.856q-10.24 27.648-34.304 43.52t-54.784 15.872q-44.032 0-71.68-29.696t-27.648-77.824q0-49.152 27.648-78.336t71.68-29.184q32.768 0 57.856 17.92t34.304 49.664h120.832q-11.264-78.848-69.632-126.976t-144.384-48.128q-93.184 0-154.112 60.416t-60.928 154.624 60.928 154.624 154.112 60.416q82.944 0 141.312-46.080t70.656-120.832z" />
<glyph unicode="&#xaa;" glyph-name="ordfeminine" horiz-adv-x="388" d="M169.984 391.424q26.624 0 44.544 15.872t17.92 44.544v20.48q-14.336-7.168-41.984-13.312t-43.008-13.312-15.36-23.552q0-14.336 10.752-22.528t27.136-8.192zM235.52 322.816v52.224q-28.672-58.368-106.496-58.368-43.008 0-74.24 25.088t-31.232 70.144q0 47.104 32.256 71.168t71.168 27.136 71.168 12.288 32.256 29.696q0 15.36-12.288 24.576t-31.744 9.216q-48.128 0-48.128-46.080h-105.472q0 62.464 46.080 92.672t112.64 30.208q65.536 0 108.032-27.648t42.496-86.016v-226.304h-106.496zM342.016 131.328h-295.936v97.28h295.936v-97.28z" />
<glyph unicode="&#xab;" glyph-name="guillemotleft" horiz-adv-x="587" d="M542.72 86.272l-230.4 148.48v138.24l230.4 148.48v-131.072l-147.456-87.040 147.456-87.040v-130.048zM274.432 86.272l-230.4 148.48v138.24l230.4 148.48v-131.072l-147.456-87.040 147.456-87.040v-130.048z" />
<glyph unicode="&#xac;" glyph-name="logicalnot" d="M486.4 140.544h-96.256v165.888h-313.344v92.16h409.6v-258.048z" />
<glyph unicode="&#xae;" glyph-name="registered" horiz-adv-x="510" d="M254.976 347.392q-100.352 0-166.912 69.12t-66.56 167.424q0 99.328 66.56 167.936t166.912 68.608 166.912-68.608 66.56-167.936q0-98.304-66.56-167.424t-166.912-69.12zM254.976 778.496q-80.896 0-134.656-56.32t-53.76-138.24 53.76-138.24 134.656-56.32 134.656 56.32 53.76 138.24-53.76 138.24-134.656 56.32zM262.144 650.496h-35.84v-45.056h35.84q26.624 0 26.624 23.552 0 21.504-26.624 21.504zM288.768 461.056l-53.248 93.184h-9.216v-93.184h-66.56v245.76h106.496q88.064 0 88.064-75.776 0-49.152-47.104-68.608l61.44-101.376h-79.872z" />
<glyph unicode="&#xaf;" glyph-name="macron" horiz-adv-x="512" d="M405.504 759.040v-94.208h-291.84v94.208h291.84z" />
<glyph unicode="&#xb0;" glyph-name="degree" horiz-adv-x="368" d="M184.32 554.24q-57.344 0-95.232 36.352t-37.888 91.648 37.888 91.648 95.232 36.352 94.72-36.352 37.376-91.648-37.376-91.648-94.72-36.352zM184.32 631.040q21.504 0 35.84 14.336t14.336 36.864-14.336 36.864-35.84 14.336-36.352-14.336-14.848-36.864 14.848-36.864 36.352-14.336z" />
<glyph unicode="&#xb1;" glyph-name="plusminus" d="M486.4 314.624h-156.672v-158.72h-96.256v158.72h-156.672v92.16h156.672v157.696h96.256v-157.696h156.672v-92.16zM76.8 42.24v92.16h409.6v-92.16h-409.6z" />
<glyph unicode="&#xb2;" glyph-name="twosuperior" horiz-adv-x="324" d="M307.2 592.128q0-41.984-32.256-78.336t-73.728-67.072-51.712-48.128h159.744v-88.064h-291.84v35.84q0 35.84 19.456 68.096t46.592 54.784 54.784 41.984 47.104 39.424 19.456 37.376-11.264 28.16-29.696 10.752q-44.032 0-44.032-47.104v-13.312h-100.352v21.504q0 60.416 40.448 93.696t103.936 33.28q61.44 0 102.4-32.256t40.96-90.624z" />
<glyph unicode="&#xb3;" glyph-name="threesuperior" horiz-adv-x="353" d="M182.272 304.384q-74.752 0-119.808 36.352t-45.056 98.816h103.424q0-23.552 15.872-36.864t41.472-13.312q22.528 0 36.864 11.776t14.336 31.232q0 41.984-54.272 41.984h-38.912v80.896h38.912q20.48 0 32.256 9.728t11.776 26.112q0 35.84-46.080 35.84t-46.080-44.032h-102.4q0 62.464 39.936 97.28t111.616 34.816q67.584 0 108.544-31.744t40.96-82.944q0-54.272-48.128-81.92 58.368-30.72 58.368-93.184 0-57.344-41.472-89.088t-112.128-31.744z" />
<glyph unicode="&#xb4;" glyph-name="acute" horiz-adv-x="512" d="M320.512 656.64h-117.76l58.368 153.6h153.6z" />
<glyph unicode="&#xb6;" glyph-name="paragraph" horiz-adv-x="655" d="M583.68-213.76h-92.16v1024h92.16v-1024zM389.12-213.76h-92.16v535.552h-4.096q-103.424 0-167.424 59.392t-64 165.888v46.080q0 103.424 64 160.256t167.424 56.832h96.256v-1024z" />
<glyph unicode="&#xb7;" glyph-name="periodcentered" horiz-adv-x="269" d="M135.168 225.536q-35.84 0-59.904 24.064t-24.064 58.88q0 35.84 24.064 59.392t59.904 23.552 59.392-23.552 23.552-59.392q0-34.816-23.552-58.88t-59.392-24.064z" />
<glyph unicode="&#xb8;" glyph-name="cedilla" horiz-adv-x="512" d="M256-213.76q-52.224 0-86.016 25.6t-33.792 62.464h80.896q4.096-23.552 38.912-23.552 17.408 0 29.184 11.776t11.776 28.16q0 17.408-11.776 29.184t-29.184 11.776q-27.648 0-34.816-16.384h-79.872l79.872 126.976h76.8l-30.72-46.080q47.104 0 77.824-30.72t30.72-74.752-33.28-74.24-86.528-30.208z" />
<glyph unicode="&#xb9;" glyph-name="onesuperior" horiz-adv-x="229" d="M87.040 702.72v6.144h108.544v-398.336h-111.616v247.808h-73.728v83.968h19.456q29.696 0 43.52 14.336t13.824 46.080z" />
<glyph unicode="&#xba;" glyph-name="ordmasculine" horiz-adv-x="388" d="M194.56 316.672q-75.776 0-125.952 48.64t-50.176 124.416q0 76.8 50.176 124.928t125.952 48.128 125.44-48.128 49.664-124.928q0-75.776-49.664-124.416t-125.44-48.64zM194.56 414.976q29.696 0 49.152 20.48t19.456 54.272-18.944 54.784-49.664 20.992-50.176-20.992-19.456-54.784 19.456-54.272 50.176-20.48zM342.016 131.328h-295.936v97.28h295.936v-97.28z" />
<glyph unicode="&#xbb;" glyph-name="guillemotright" horiz-adv-x="587" d="M44.032 86.272v130.048l147.456 87.040-147.456 87.040v131.072l230.4-148.48v-138.24zM312.32 86.272v130.048l147.456 87.040-147.456 87.040v131.072l230.4-148.48v-138.24z" />
<glyph unicode="&#xbc;" glyph-name="onequarter" horiz-adv-x="825" d="M105.472 42.24l532.48 768h81.92l-532.48-768h-81.92zM168.96 804.096v6.144h108.544v-398.336h-111.616v247.808h-73.728v83.968h19.456q29.696 0 43.52 14.336t13.824 46.080zM543.744 195.84h79.872v169.984zM787.456 110.848h-59.392v-68.608h-104.448v68.608h-175.104v81.92l118.784 247.808h160.768v-244.736h59.392v-84.992z" />
<glyph unicode="&#xbd;" glyph-name="onehalf" horiz-adv-x="825" d="M105.472 42.24l532.48 768h81.92l-532.48-768h-81.92zM168.96 804.096v6.144h108.544v-398.336h-111.616v247.808h-73.728v83.968h19.456q29.696 0 43.52 14.336t13.824 46.080zM765.952 323.84q0-41.984-32.256-78.336t-73.728-67.072-51.712-48.128h159.744v-88.064h-291.84v35.84q0 35.84 19.456 68.096t46.592 54.784 54.784 41.984 47.104 39.424 19.456 37.376-11.264 28.16-29.696 10.752q-44.032 0-44.032-47.104v-13.312h-100.352v21.504q0 60.416 40.448 93.696t103.936 33.28q61.44 0 102.4-32.256t40.96-90.624z" />
<glyph unicode="&#xbe;" glyph-name="threequarters" horiz-adv-x="825" d="M105.472 42.24l532.48 768h81.92l-532.48-768h-81.92zM182.272 405.76q-74.752 0-119.808 36.352t-45.056 98.816h103.424q0-23.552 15.872-36.864t41.472-13.312q22.528 0 36.864 11.776t14.336 31.232q0 41.984-54.272 41.984h-38.912v80.896h38.912q20.48 0 32.256 9.728t11.776 26.112q0 35.84-46.080 35.84t-46.080-44.032h-102.4q0 62.464 39.936 97.28t111.616 34.816q67.584 0 108.544-31.744t40.96-82.944q0-54.272-48.128-81.92 58.368-30.72 58.368-93.184 0-57.344-41.472-89.088t-112.128-31.744zM543.744 195.84h79.872v169.984zM787.456 110.848h-59.392v-68.608h-104.448v68.608h-175.104v81.92l118.784 247.808h160.768v-244.736h59.392v-84.992z" />
<glyph unicode="&#xbf;" glyph-name="questiondown" horiz-adv-x="509" d="M250.88 564.48q32.768 0 55.808-23.552t23.040-55.296q0-32.768-23.040-56.32t-55.808-23.552q-33.792 0-56.832 23.552t-23.040 56.32q0 31.744 23.040 55.296t56.832 23.552zM20.48-21.248q0 40.96 16.384 75.776t39.936 58.88 47.616 47.104 41.472 52.224 18.432 62.976l1.024 22.528h130.048v-30.72q0-50.176-23.552-94.208t-51.712-70.144-51.712-58.88-23.552-63.488q0-74.752 86.016-74.752 40.96 0 66.56 25.6t25.6 78.848v32.768h143.36v-44.032q0-107.52-67.584-165.376t-167.936-57.856q-103.424 0-166.912 53.76t-63.488 148.992z" />
<glyph unicode="&#xc0;" glyph-name="Agrave" horiz-adv-x="522" d="M206.848 881.92l-95.232 153.6h153.6l59.392-153.6h-117.76zM321.536 326.912l-60.416 370.688-60.416-370.688h120.832zM368.64 42.24l-25.6 156.672h-163.84l-25.6-156.672h-145.408l139.264 768h227.328l140.288-768h-146.432z" />
<glyph unicode="&#xc1;" glyph-name="Aacute" horiz-adv-x="522" d="M325.632 881.92h-117.76l58.368 153.6h153.6zM321.536 326.912l-60.416 370.688-60.416-370.688h120.832zM368.64 42.24l-25.6 156.672h-163.84l-25.6-156.672h-145.408l139.264 768h227.328l140.288-768h-146.432z" />
<glyph unicode="&#xc2;" glyph-name="Acircumflex" horiz-adv-x="522" d="M324.608 881.92l-64.512 75.776-63.488-75.776h-115.712l100.352 153.6h158.72l99.328-153.6h-114.688zM321.536 326.912l-60.416 370.688-60.416-370.688h120.832zM368.64 42.24l-25.6 156.672h-163.84l-25.6-156.672h-145.408l139.264 768h227.328l140.288-768h-146.432z" />
<glyph unicode="&#xc3;" glyph-name="Atilde" horiz-adv-x="522" d="M84.992 881.92v49.152q0 104.448 90.112 104.448 34.816 0 82.944-26.112t63.488-26.112q29.696 0 29.696 34.816v17.408h87.040v-48.128q0-105.472-91.136-105.472-34.816 0-82.432 26.112t-62.976 26.112q-29.696 0-29.696-34.816v-17.408h-87.040zM321.536 326.912l-60.416 370.688-60.416-370.688h120.832zM368.64 42.24l-25.6 156.672h-163.84l-25.6-156.672h-145.408l139.264 768h227.328l140.288-768h-146.432z" />
<glyph unicode="&#xc4;" glyph-name="Adieresis" horiz-adv-x="522" d="M365.568 887.040q-28.672 0-49.664 20.992t-20.992 50.688 20.992 50.688 49.664 20.992q30.72 0 51.2-20.992t20.48-50.688-20.48-50.688-51.2-20.992zM156.672 887.040q-29.696 0-50.688 20.992t-20.992 50.688 20.992 50.688 50.688 20.992 50.688-20.992 20.992-50.688-20.992-50.688-50.688-20.992zM321.536 326.912l-60.416 370.688-60.416-370.688h120.832zM368.64 42.24l-25.6 156.672h-163.84l-25.6-156.672h-145.408l139.264 768h227.328l140.288-768h-146.432z" />
<glyph unicode="&#xc5;" glyph-name="Aring" horiz-adv-x="522" d="M261.12 851.2q-50.176 0-81.92 27.648t-31.744 69.632q0 40.96 31.744 69.12t81.92 28.16 82.432-28.16 32.256-69.12q0-41.984-31.744-69.632t-82.944-27.648zM261.12 915.712q15.36 0 25.6 9.216t10.24 23.552-10.24 24.064-25.6 9.728q-14.336 0-24.064-9.728t-9.728-24.064 9.728-23.552 24.064-9.216zM321.536 326.912l-60.416 370.688-60.416-370.688h120.832zM368.64 42.24l-25.6 156.672h-163.84l-25.6-156.672h-145.408l139.264 768h227.328l140.288-768h-146.432z" />
<glyph unicode="&#xc6;" glyph-name="AE" horiz-adv-x="797" d="M395.264 334.080v380.928l-138.24-380.928h138.24zM395.264 42.24v163.84h-185.344l-59.392-163.84h-150.528l292.864 768h467.968v-130.048h-218.112v-179.2h197.632v-131.072h-197.632v-196.608h218.112v-131.072h-365.568z" />
<glyph unicode="&#xc7;" glyph-name="Ccedilla" horiz-adv-x="584" d="M291.84-213.76q-52.224 0-86.016 25.6t-33.792 62.464h80.896q5.12-23.552 38.912-23.552 17.408 0 29.184 11.264t11.776 28.672-11.776 29.184-29.184 11.776q-27.648 0-34.816-16.384h-79.872l72.704 115.712q-95.232 12.288-146.944 79.36t-51.712 185.856v261.12q0 131.072 62.976 198.656t177.664 67.584 177.664-67.584 62.976-198.656v-49.152h-148.48v51.2q0 71.68-23.552 102.4t-68.608 30.72-68.608-30.72-23.552-102.4v-266.24q0-71.68 23.552-102.4t68.608-30.72 68.608 30.72 23.552 102.4v61.44h148.48v-58.368q0-120.832-54.272-188.416t-152.576-76.8l-22.528-34.816q47.104 0 77.824-30.72t30.72-74.752-33.28-74.24-86.528-30.208z" />
<glyph unicode="&#xc8;" glyph-name="Egrave" horiz-adv-x="465" d="M194.56 881.92l-95.232 153.6h153.6l59.392-153.6h-117.76zM61.44 42.24v768h367.616v-130.048h-220.16v-179.2h199.68v-131.072h-199.68v-196.608h220.16v-131.072h-367.616z" />
<glyph unicode="&#xc9;" glyph-name="Eacute" horiz-adv-x="465" d="M313.344 881.92h-117.76l58.368 153.6h153.6zM61.44 42.24v768h367.616v-130.048h-220.16v-179.2h199.68v-131.072h-199.68v-196.608h220.16v-131.072h-367.616z" />
<glyph unicode="&#xca;" glyph-name="Ecircumflex" horiz-adv-x="465" d="M312.32 881.92l-64.512 75.776-63.488-75.776h-115.712l100.352 153.6h158.72l99.328-153.6h-114.688zM61.44 42.24v768h367.616v-130.048h-220.16v-179.2h199.68v-131.072h-199.68v-196.608h220.16v-131.072h-367.616z" />
<glyph unicode="&#xcb;" glyph-name="Edieresis" horiz-adv-x="465" d="M353.28 887.040q-28.672 0-49.664 20.992t-20.992 50.688 20.992 50.688 49.664 20.992q30.72 0 51.2-20.992t20.48-50.688-20.48-50.688-51.2-20.992zM144.384 887.040q-29.696 0-50.688 20.992t-20.992 50.688 20.992 50.688 50.688 20.992 50.688-20.992 20.992-50.688-20.992-50.688-50.688-20.992zM61.44 42.24v768h367.616v-130.048h-220.16v-179.2h199.68v-131.072h-199.68v-196.608h220.16v-131.072h-367.616z" />
<glyph unicode="&#xcc;" glyph-name="Igrave" horiz-adv-x="271" d="M80.896 881.92l-95.232 153.6h153.6l59.392-153.6h-117.76zM209.92 42.24h-148.48v768h148.48v-768z" />
<glyph unicode="&#xcd;" glyph-name="Iacute" horiz-adv-x="271" d="M199.68 881.92h-117.76l58.368 153.6h153.6zM209.92 42.24h-148.48v768h148.48v-768z" />
<glyph unicode="&#xce;" glyph-name="Icircumflex" horiz-adv-x="271" d="M198.656 881.92l-64.512 75.776-63.488-75.776h-115.712l100.352 153.6h158.72l99.328-153.6h-114.688zM209.92 42.24h-148.48v768h148.48v-768z" />
<glyph unicode="&#xcf;" glyph-name="Idieresis" horiz-adv-x="271" d="M239.616 887.040q-28.672 0-49.664 20.992t-20.992 50.688 20.992 50.688 49.664 20.992q30.72 0 51.2-20.992t20.48-50.688-20.48-50.688-51.2-20.992zM30.72 887.040q-28.672 0-50.176 20.992t-21.504 50.688 20.992 50.688 50.688 20.992 50.688-20.992 20.992-50.688-20.992-50.688-50.688-20.992zM209.92 42.24h-148.48v768h148.48v-768z" />
<glyph unicode="&#xd0;" glyph-name="Eth" horiz-adv-x="584" d="M291.84 42.24h-230.4v346.112h-61.44v94.208h61.44v327.68h230.4q113.664 0 177.152-65.536t63.488-192.512v-250.88q0-128-62.976-193.536t-177.664-65.536zM209.92 173.312h81.92q45.056 0 68.608 28.672t23.552 96.256v256q0 67.584-23.552 96.768t-68.608 29.184h-81.92v-197.632h88.064v-94.208h-88.064v-215.040z" />
<glyph unicode="&#xd1;" glyph-name="Ntilde" horiz-adv-x="604" d="M125.952 881.92v49.152q0 104.448 90.112 104.448 34.816 0 82.944-26.112t63.488-26.112q29.696 0 29.696 34.816v17.408h87.040v-48.128q0-105.472-91.136-105.472-34.816 0-82.432 26.112t-62.976 26.112q-29.696 0-29.696-34.816v-17.408h-87.040zM315.392 42.24l-126.976 665.6v-665.6h-126.976v768h228.352l125.952-656.384v656.384h126.976v-768h-227.328z" />
<glyph unicode="&#xd2;" glyph-name="Ograve" horiz-adv-x="584" d="M237.568 881.92l-95.232 153.6h153.6l59.392-153.6h-117.76zM291.84 28.928q-114.688 0-177.664 67.584t-62.976 199.68v261.12q0 131.072 62.976 198.656t177.664 67.584 177.664-67.584 62.976-198.656v-261.12q0-132.096-62.976-199.68t-177.664-67.584zM291.84 160q45.056 0 68.608 30.72t23.552 102.4v266.24q0 71.68-23.552 102.4t-68.608 30.72-68.608-30.72-23.552-102.4v-266.24q0-71.68 23.552-102.4t68.608-30.72z" />
<glyph unicode="&#xd3;" glyph-name="Oacute" horiz-adv-x="584" d="M356.352 881.92h-117.76l58.368 153.6h153.6zM291.84 28.928q-114.688 0-177.664 67.584t-62.976 199.68v261.12q0 131.072 62.976 198.656t177.664 67.584 177.664-67.584 62.976-198.656v-261.12q0-132.096-62.976-199.68t-177.664-67.584zM291.84 160q45.056 0 68.608 30.72t23.552 102.4v266.24q0 71.68-23.552 102.4t-68.608 30.72-68.608-30.72-23.552-102.4v-266.24q0-71.68 23.552-102.4t68.608-30.72z" />
<glyph unicode="&#xd4;" glyph-name="Ocircumflex" horiz-adv-x="584" d="M355.328 881.92l-64.512 75.776-63.488-75.776h-115.712l100.352 153.6h158.72l99.328-153.6h-114.688zM291.84 28.928q-114.688 0-177.664 67.584t-62.976 199.68v261.12q0 131.072 62.976 198.656t177.664 67.584 177.664-67.584 62.976-198.656v-261.12q0-132.096-62.976-199.68t-177.664-67.584zM291.84 160q45.056 0 68.608 30.72t23.552 102.4v266.24q0 71.68-23.552 102.4t-68.608 30.72-68.608-30.72-23.552-102.4v-266.24q0-71.68 23.552-102.4t68.608-30.72z" />
<glyph unicode="&#xd5;" glyph-name="Otilde" horiz-adv-x="584" d="M115.712 881.92v49.152q0 104.448 90.112 104.448 34.816 0 82.944-26.112t63.488-26.112q29.696 0 29.696 34.816v17.408h87.040v-48.128q0-105.472-91.136-105.472-34.816 0-82.432 26.112t-62.976 26.112q-29.696 0-29.696-34.816v-17.408h-87.040zM291.84 28.928q-114.688 0-177.664 67.584t-62.976 199.68v261.12q0 131.072 62.976 198.656t177.664 67.584 177.664-67.584 62.976-198.656v-261.12q0-132.096-62.976-199.68t-177.664-67.584zM291.84 160q45.056 0 68.608 30.72t23.552 102.4v266.24q0 71.68-23.552 102.4t-68.608 30.72-68.608-30.72-23.552-102.4v-266.24q0-71.68 23.552-102.4t68.608-30.72z" />
<glyph unicode="&#xd6;" glyph-name="Odieresis" horiz-adv-x="584" d="M396.288 887.040q-28.672 0-49.664 20.992t-20.992 50.688 20.992 50.688 49.664 20.992q30.72 0 51.2-20.992t20.48-50.688-20.48-50.688-51.2-20.992zM187.392 887.040q-29.696 0-50.688 20.992t-20.992 50.688 20.992 50.688 50.688 20.992 50.688-20.992 20.992-50.688-20.992-50.688-50.688-20.992zM291.84 28.928q-114.688 0-177.664 67.584t-62.976 199.68v261.12q0 131.072 62.976 198.656t177.664 67.584 177.664-67.584 62.976-198.656v-261.12q0-132.096-62.976-199.68t-177.664-67.584zM291.84 160q45.056 0 68.608 30.72t23.552 102.4v266.24q0 71.68-23.552 102.4t-68.608 30.72-68.608-30.72-23.552-102.4v-266.24q0-71.68 23.552-102.4t68.608-30.72z" />
<glyph unicode="&#xd7;" glyph-name="multiply" d="M398.336 169.216l-116.736 117.76-111.616-111.616-65.536 65.536 111.616 111.616-117.76 116.736 67.584 67.584 117.76-116.736 110.592 110.592 65.536-65.536-110.592-110.592 116.736-117.76z" />
<glyph unicode="&#xd8;" glyph-name="Oslash" horiz-adv-x="584" d="M310.272 28.928q-95.232 0-139.264 43.008l-14.336-29.696h-105.472l47.104 96.256q-47.104 53.248-47.104 167.936v250.88q0 130.048 60.928 198.144t162.304 68.096q95.232 0 138.24-44.032l15.36 30.72h104.448l-47.104-97.28q47.104-51.2 47.104-165.888v-250.88q0-130.048-60.416-198.656t-161.792-68.608zM199.68 559.36v-214.016l157.696 320.512q-21.504 26.624-65.536 26.624-45.056 0-68.608-30.72t-23.552-102.4zM291.84 160q46.080 0 69.12 30.208t23.040 102.912v214.016l-156.672-321.536q21.504-25.6 64.512-25.6z" />
<glyph unicode="&#xd9;" glyph-name="Ugrave" horiz-adv-x="584" d="M237.568 881.92l-95.232 153.6h153.6l59.392-153.6h-117.76zM56.32 810.24h148.48v-529.408q0-64.512 22.016-92.672t65.024-28.16 65.024 28.16 22.016 92.672v529.408h148.48v-527.36q0-124.928-61.952-189.44t-173.568-64.512-173.568 64.512-61.952 189.44v527.36z" />
<glyph unicode="&#xda;" glyph-name="Uacute" horiz-adv-x="584" d="M356.352 881.92h-117.76l58.368 153.6h153.6zM56.32 810.24h148.48v-529.408q0-64.512 22.016-92.672t65.024-28.16 65.024 28.16 22.016 92.672v529.408h148.48v-527.36q0-124.928-61.952-189.44t-173.568-64.512-173.568 64.512-61.952 189.44v527.36z" />
<glyph unicode="&#xdb;" glyph-name="Ucircumflex" horiz-adv-x="584" d="M355.328 881.92l-64.512 75.776-63.488-75.776h-115.712l100.352 153.6h158.72l99.328-153.6h-114.688zM56.32 810.24h148.48v-529.408q0-64.512 22.016-92.672t65.024-28.16 65.024 28.16 22.016 92.672v529.408h148.48v-527.36q0-124.928-61.952-189.44t-173.568-64.512-173.568 64.512-61.952 189.44v527.36z" />
<glyph unicode="&#xdc;" glyph-name="Udieresis" horiz-adv-x="584" d="M396.288 887.040q-28.672 0-49.664 20.992t-20.992 50.688 20.992 50.688 49.664 20.992q30.72 0 51.2-20.992t20.48-50.688-20.48-50.688-51.2-20.992zM187.392 887.040q-29.696 0-50.688 20.992t-20.992 50.688 20.992 50.688 50.688 20.992 50.688-20.992 20.992-50.688-20.992-50.688-50.688-20.992zM56.32 810.24h148.48v-529.408q0-64.512 22.016-92.672t65.024-28.16 65.024 28.16 22.016 92.672v529.408h148.48v-527.36q0-124.928-61.952-189.44t-173.568-64.512-173.568 64.512-61.952 189.44v527.36z" />
<glyph unicode="&#xdd;" glyph-name="Yacute" horiz-adv-x="492" d="M310.272 881.92h-117.76l58.368 153.6h153.6zM320.512 321.792v-279.552h-148.48v279.552l-172.032 488.448h144.384l101.376-317.44 101.376 317.44h144.384z" />
<glyph unicode="&#xde;" glyph-name="Thorn" horiz-adv-x="543" d="M284.672 572.672h-76.8v-233.472h76.8q90.112 0 90.112 107.52v25.6q0 100.352-90.112 100.352zM293.888 211.2h-86.016v-168.96h-146.432v768h146.432v-109.568h86.016q102.4 0 162.816-56.832t60.416-161.28v-46.080q0-107.52-60.928-166.4t-162.304-58.88z" />
<glyph unicode="&#xdf;" glyph-name="germandbls" horiz-adv-x="639" d="M240.64 620.8v-578.56h-148.48v392.192h-73.728v119.808h73.728v68.608q0 94.208 60.928 145.92t164.352 51.712q102.4 0 165.888-51.2t63.488-139.264q0-77.824-64.512-121.856 58.368-31.744 92.16-88.064t33.792-129.024q0-109.568-72.704-179.2t-184.32-69.632h-37.888v120.832h17.408q58.368 0 95.744 37.376t37.376 97.792-37.376 98.304-95.744 37.888h-17.408v119.808h5.12q76.8 0 76.8 68.608 0 34.816-20.48 54.272t-57.344 19.456q-35.84 0-56.32-19.968t-20.48-55.808z" />
<glyph unicode="&#xe0;" glyph-name="agrave" d="M232.448 656.64l-95.232 153.6h153.6l59.392-153.6h-117.76zM249.856 141.568q49.152 0 81.92 27.648t32.768 76.8v26.624q-24.576-11.264-74.752-20.992t-77.312-22.016-27.136-38.912q0-23.552 17.92-36.352t46.592-12.8zM367.616 42.24v77.824q-46.080-88.064-162.816-88.064-69.632 0-118.784 37.376t-49.152 109.056q0 51.2 24.064 84.48t60.416 46.592 78.336 22.528 78.336 13.312 60.416 16.896 24.064 36.352q0 26.624-22.528 41.984t-58.368 15.36q-38.912 0-60.928-20.48t-22.016-57.344h-146.432q0 94.208 67.584 140.288t165.888 46.080q97.28 0 161.28-41.984t64-128v-352.256h-143.36z" />
<glyph unicode="&#xe1;" glyph-name="aacute" d="M350.208 656.64h-117.76l58.368 153.6h153.6zM249.856 141.568q49.152 0 81.92 27.648t32.768 76.8v26.624q-24.576-11.264-74.752-20.992t-77.312-22.016-27.136-38.912q0-23.552 17.92-36.352t46.592-12.8zM367.616 42.24v77.824q-46.080-88.064-162.816-88.064-69.632 0-118.784 37.376t-49.152 109.056q0 51.2 24.064 84.48t60.416 46.592 78.336 22.528 78.336 13.312 60.416 16.896 24.064 36.352q0 26.624-22.528 41.984t-58.368 15.36q-38.912 0-60.928-20.48t-22.016-57.344h-146.432q0 94.208 67.584 140.288t165.888 46.080q97.28 0 161.28-41.984t64-128v-352.256h-143.36z" />
<glyph unicode="&#xe2;" glyph-name="acircumflex" d="M350.208 656.64l-64.512 75.776-63.488-75.776h-115.712l100.352 153.6h158.72l99.328-153.6h-114.688zM249.856 141.568q49.152 0 81.92 27.648t32.768 76.8v26.624q-24.576-11.264-74.752-20.992t-77.312-22.016-27.136-38.912q0-23.552 17.92-36.352t46.592-12.8zM367.616 42.24v77.824q-46.080-88.064-162.816-88.064-69.632 0-118.784 37.376t-49.152 109.056q0 51.2 24.064 84.48t60.416 46.592 78.336 22.528 78.336 13.312 60.416 16.896 24.064 36.352q0 26.624-22.528 41.984t-58.368 15.36q-38.912 0-60.928-20.48t-22.016-57.344h-146.432q0 94.208 67.584 140.288t165.888 46.080q97.28 0 161.28-41.984t64-128v-352.256h-143.36z" />
<glyph unicode="&#xe3;" glyph-name="atilde" d="M109.568 656.64v49.152q0 104.448 90.112 104.448 34.816 0 82.944-26.112t63.488-26.112q29.696 0 29.696 34.816v17.408h87.040v-48.128q0-105.472-91.136-105.472-34.816 0-82.432 26.112t-62.976 26.112q-29.696 0-29.696-34.816v-17.408h-87.040zM249.856 141.568q49.152 0 81.92 27.648t32.768 76.8v26.624q-24.576-11.264-74.752-20.992t-77.312-22.016-27.136-38.912q0-23.552 17.92-36.352t46.592-12.8zM367.616 42.24v77.824q-46.080-88.064-162.816-88.064-69.632 0-118.784 37.376t-49.152 109.056q0 51.2 24.064 84.48t60.416 46.592 78.336 22.528 78.336 13.312 60.416 16.896 24.064 36.352q0 26.624-22.528 41.984t-58.368 15.36q-38.912 0-60.928-20.48t-22.016-57.344h-146.432q0 94.208 67.584 140.288t165.888 46.080q97.28 0 161.28-41.984t64-128v-352.256h-143.36z" />
<glyph unicode="&#xe4;" glyph-name="adieresis" d="M390.144 661.76q-28.672 0-49.664 20.992t-20.992 50.688 20.992 50.688 49.664 20.992q30.72 0 51.2-20.992t20.48-50.688-20.48-50.688-51.2-20.992zM181.248 661.76q-29.696 0-50.688 20.992t-20.992 50.688 20.992 50.688 50.688 20.992 50.688-20.992 20.992-50.688-20.992-50.688-50.688-20.992zM249.856 141.568q49.152 0 81.92 27.648t32.768 76.8v26.624q-24.576-11.264-74.752-20.992t-77.312-22.016-27.136-38.912q0-23.552 17.92-36.352t46.592-12.8zM367.616 42.24v77.824q-46.080-88.064-162.816-88.064-69.632 0-118.784 37.376t-49.152 109.056q0 51.2 24.064 84.48t60.416 46.592 78.336 22.528 78.336 13.312 60.416 16.896 24.064 36.352q0 26.624-22.528 41.984t-58.368 15.36q-38.912 0-60.928-20.48t-22.016-57.344h-146.432q0 94.208 67.584 140.288t165.888 46.080q97.28 0 161.28-41.984t64-128v-352.256h-143.36z" />
<glyph unicode="&#xe5;" glyph-name="aring" d="M285.696 625.92q-50.176 0-81.92 27.648t-31.744 69.632q0 40.96 31.744 69.12t81.92 28.16 82.432-28.16 32.256-69.12q0-41.984-31.744-69.632t-82.944-27.648zM285.696 690.432q15.36 0 25.6 9.216t10.24 23.552-10.24 24.064-25.6 9.728q-14.336 0-24.064-9.728t-9.728-24.064 9.728-23.552 24.064-9.216zM249.856 141.568q49.152 0 81.92 27.648t32.768 76.8v26.624q-24.576-11.264-74.752-20.992t-77.312-22.016-27.136-38.912q0-23.552 17.92-36.352t46.592-12.8zM367.616 42.24v77.824q-46.080-88.064-162.816-88.064-69.632 0-118.784 37.376t-49.152 109.056q0 51.2 24.064 84.48t60.416 46.592 78.336 22.528 78.336 13.312 60.416 16.896 24.064 36.352q0 26.624-22.528 41.984t-58.368 15.36q-38.912 0-60.928-20.48t-22.016-57.344h-146.432q0 94.208 67.584 140.288t165.888 46.080q97.28 0 161.28-41.984t64-128v-352.256h-143.36z" />
<glyph unicode="&#xe6;" glyph-name="ae" horiz-adv-x="921" d="M630.784 442.624q-97.28 0-115.712-98.304h231.424q-18.432 98.304-115.712 98.304zM249.856 141.568q49.152 0 81.92 27.648t32.768 76.8v26.624q-24.576-11.264-74.752-20.992t-77.312-22.016-27.136-38.912q0-23.552 17.92-36.352t46.592-12.8zM877.568 204.032q-23.552-83.968-87.552-128t-159.232-44.032q-136.192 0-208.896 105.472-49.152-105.472-195.584-105.472-77.824 0-133.632 37.376t-55.808 109.056q0 51.2 24.064 84.48t60.416 46.592 78.336 22.528 78.336 13.312 60.416 16.896 24.064 36.352q0 26.624-22.528 41.984t-58.368 15.36q-38.912 0-60.928-20.48t-22.016-57.344h-146.432q0 94.208 65.024 140.288t161.28 46.080q121.856 0 176.128-67.584 69.632 67.584 176.128 67.584 113.664 0 186.368-74.752t72.704-191.488q0-14.336-2.048-40.96h-373.76q18.432-103.424 120.832-103.424 70.656 0 92.16 50.176h150.528z" />
<glyph unicode="&#xe7;" glyph-name="ccedilla" horiz-adv-x="586" d="M292.864-213.76q-52.224 0-86.016 25.6t-33.792 62.464h80.896q5.12-23.552 38.912-23.552 17.408 0 29.184 11.264t11.776 28.672-11.776 29.184-29.184 11.776q-27.648 0-34.816-16.384h-79.872l75.776 119.808q-99.328 13.312-161.28 85.504t-61.952 177.664q0 116.736 74.24 191.488t187.904 74.752q104.448 0 174.592-56.32t84.48-149.504h-151.552q-9.216 35.84-38.4 54.784t-68.096 18.944q-52.224 0-84.992-36.864t-32.768-97.28 32.768-97.28 84.992-36.864q39.936 0 69.632 22.016t38.912 62.976h151.552q-9.216-89.088-70.144-146.944t-154.112-68.096l-26.624-37.888q48.128 0 78.848-30.72t30.72-74.752-33.28-74.24-86.528-30.208z" />
<glyph unicode="&#xe8;" glyph-name="egrave" horiz-adv-x="580" d="M236.544 656.64l-95.232 153.6h153.6l59.392-153.6h-117.76zM289.792 442.624q-97.28 0-115.712-98.304h231.424q-18.432 98.304-115.712 98.304zM536.576 204.032q-23.552-83.968-87.552-128t-159.232-44.032q-113.664 0-186.368 74.752t-72.704 191.488 72.704 191.488 186.368 74.752 186.368-74.752 72.704-191.488q0-14.336-2.048-40.96h-373.76q18.432-103.424 120.832-103.424 70.656 0 92.16 50.176h150.528z" />
<glyph unicode="&#xe9;" glyph-name="eacute" horiz-adv-x="580" d="M354.304 656.64h-117.76l58.368 153.6h153.6zM289.792 442.624q-97.28 0-115.712-98.304h231.424q-18.432 98.304-115.712 98.304zM536.576 204.032q-23.552-83.968-87.552-128t-159.232-44.032q-113.664 0-186.368 74.752t-72.704 191.488 72.704 191.488 186.368 74.752 186.368-74.752 72.704-191.488q0-14.336-2.048-40.96h-373.76q18.432-103.424 120.832-103.424 70.656 0 92.16 50.176h150.528z" />
<glyph unicode="&#xea;" glyph-name="ecircumflex" horiz-adv-x="580" d="M354.304 656.64l-64.512 75.776-63.488-75.776h-115.712l100.352 153.6h158.72l99.328-153.6h-114.688zM289.792 442.624q-97.28 0-115.712-98.304h231.424q-18.432 98.304-115.712 98.304zM536.576 204.032q-23.552-83.968-87.552-128t-159.232-44.032q-113.664 0-186.368 74.752t-72.704 191.488 72.704 191.488 186.368 74.752 186.368-74.752 72.704-191.488q0-14.336-2.048-40.96h-373.76q18.432-103.424 120.832-103.424 70.656 0 92.16 50.176h150.528z" />
<glyph unicode="&#xeb;" glyph-name="edieresis" horiz-adv-x="580" d="M394.24 661.76q-28.672 0-49.664 20.992t-20.992 50.688 20.992 50.688 49.664 20.992q30.72 0 51.2-20.992t20.48-50.688-20.48-50.688-51.2-20.992zM185.344 661.76q-29.696 0-50.688 20.992t-20.992 50.688 20.992 50.688 50.688 20.992 50.688-20.992 20.992-50.688-20.992-50.688-50.688-20.992zM289.792 442.624q-97.28 0-115.712-98.304h231.424q-18.432 98.304-115.712 98.304zM536.576 204.032q-23.552-83.968-87.552-128t-159.232-44.032q-113.664 0-186.368 74.752t-72.704 191.488 72.704 191.488 186.368 74.752 186.368-74.752 72.704-191.488q0-14.336-2.048-40.96h-373.76q18.432-103.424 120.832-103.424 70.656 0 92.16 50.176h150.528z" />
<glyph unicode="&#xec;" glyph-name="igrave" horiz-adv-x="271" d="M81.92 656.64l-95.232 153.6h153.6l59.392-153.6h-117.76zM209.92 42.24h-148.48v512h148.48v-512z" />
<glyph unicode="&#xed;" glyph-name="iacute" horiz-adv-x="271" d="M199.68 656.64h-117.76l58.368 153.6h153.6zM209.92 42.24h-148.48v512h148.48v-512z" />
<glyph unicode="&#xee;" glyph-name="icircumflex" horiz-adv-x="271" d="M199.68 656.64l-64.512 75.776-63.488-75.776h-115.712l100.352 153.6h158.72l99.328-153.6h-114.688zM209.92 42.24h-148.48v512h148.48v-512z" />
<glyph unicode="&#xef;" glyph-name="idieresis" horiz-adv-x="271" d="M239.616 661.76q-28.672 0-49.664 20.992t-20.992 50.688 20.992 50.688 49.664 20.992q30.72 0 51.2-20.992t20.48-50.688-20.48-50.688-51.2-20.992zM30.72 661.76q-28.672 0-50.176 20.992t-21.504 50.688 20.992 50.688 50.688 20.992 50.688-20.992 20.992-50.688-20.992-50.688-50.688-20.992zM209.92 42.24h-148.48v512h148.48v-512z" />
<glyph unicode="&#xf0;" glyph-name="eth" horiz-adv-x="589" d="M284.672 32q-110.592 0-182.272 69.12t-71.68 176.64q0 108.544 66.56 177.152t176.128 68.608q73.728 0 123.904-45.056-10.24 90.112-50.176 141.312l-62.464-56.32h-125.952l119.808 107.52q-34.816 14.336-84.992 14.336-27.648 0-62.464-6.144v126.976q45.056 7.168 78.848 7.168 99.328 0 175.104-46.080l48.128 43.008h124.928l-107.52-97.28q102.4-113.664 102.4-330.752 0-182.272-73.728-266.24t-194.56-83.968zM284.672 160q49.152 0 80.896 32.768t31.744 84.992-31.744 84.992-80.896 32.768-80.896-32.768-31.744-84.992 31.744-84.992 80.896-32.768z" />
<glyph unicode="&#xf1;" glyph-name="ntilde" horiz-adv-x="599" d="M125.952 656.64v49.152q0 104.448 90.112 104.448 34.816 0 82.944-26.112t63.488-26.112q29.696 0 29.696 34.816v17.408h87.040v-48.128q0-105.472-91.136-105.472-34.816 0-82.432 26.112t-62.976 26.112q-29.696 0-29.696-34.816v-17.408h-87.040zM209.92 324.864v-282.624h-148.48v512h146.432v-72.704q48.128 82.944 148.48 82.944 82.944 0 134.656-53.248t51.712-152.576v-316.416h-148.48v282.624q0 57.344-24.064 87.040t-68.096 29.696-68.096-29.696-24.064-87.040z" />
<glyph unicode="&#xf2;" glyph-name="ograve" horiz-adv-x="594" d="M243.712 656.64l-95.232 153.6h153.6l59.392-153.6h-117.76zM296.96 32q-115.712 0-190.976 74.24t-75.264 192 75.264 192 190.976 74.24 190.976-74.24 75.264-192-75.264-192-190.976-74.24zM296.96 164.096q53.248 0 87.552 37.376t34.304 96.768q0 60.416-34.304 97.28t-87.552 36.864-87.552-36.864-34.304-97.28q0-59.392 34.304-96.768t87.552-37.376z" />
<glyph unicode="&#xf3;" glyph-name="oacute" horiz-adv-x="594" d="M361.472 656.64h-117.76l58.368 153.6h153.6zM296.96 32q-115.712 0-190.976 74.24t-75.264 192 75.264 192 190.976 74.24 190.976-74.24 75.264-192-75.264-192-190.976-74.24zM296.96 164.096q53.248 0 87.552 37.376t34.304 96.768q0 60.416-34.304 97.28t-87.552 36.864-87.552-36.864-34.304-97.28q0-59.392 34.304-96.768t87.552-37.376z" />
<glyph unicode="&#xf4;" glyph-name="ocircumflex" horiz-adv-x="594" d="M361.472 656.64l-64.512 75.776-63.488-75.776h-115.712l100.352 153.6h158.72l99.328-153.6h-114.688zM296.96 32q-115.712 0-190.976 74.24t-75.264 192 75.264 192 190.976 74.24 190.976-74.24 75.264-192-75.264-192-190.976-74.24zM296.96 164.096q53.248 0 87.552 37.376t34.304 96.768q0 60.416-34.304 97.28t-87.552 36.864-87.552-36.864-34.304-97.28q0-59.392 34.304-96.768t87.552-37.376z" />
<glyph unicode="&#xf5;" glyph-name="otilde" horiz-adv-x="594" d="M120.832 656.64v49.152q0 104.448 90.112 104.448 34.816 0 82.944-26.112t63.488-26.112q29.696 0 29.696 34.816v17.408h87.040v-48.128q0-105.472-91.136-105.472-34.816 0-82.432 26.112t-62.976 26.112q-29.696 0-29.696-34.816v-17.408h-87.040zM296.96 32q-115.712 0-190.976 74.24t-75.264 192 75.264 192 190.976 74.24 190.976-74.24 75.264-192-75.264-192-190.976-74.24zM296.96 164.096q53.248 0 87.552 37.376t34.304 96.768q0 60.416-34.304 97.28t-87.552 36.864-87.552-36.864-34.304-97.28q0-59.392 34.304-96.768t87.552-37.376z" />
<glyph unicode="&#xf6;" glyph-name="odieresis" horiz-adv-x="594" d="M401.408 661.76q-28.672 0-49.664 20.992t-20.992 50.688 20.992 50.688 49.664 20.992q30.72 0 51.2-20.992t20.48-50.688-20.48-50.688-51.2-20.992zM192.512 661.76q-28.672 0-50.176 20.992t-21.504 50.688 20.992 50.688 50.688 20.992 50.688-20.992 20.992-50.688-20.992-50.688-50.688-20.992zM296.96 32q-115.712 0-190.976 74.24t-75.264 192 75.264 192 190.976 74.24 190.976-74.24 75.264-192-75.264-192-190.976-74.24zM296.96 164.096q53.248 0 87.552 37.376t34.304 96.768q0 60.416-34.304 97.28t-87.552 36.864-87.552-36.864-34.304-97.28q0-59.392 34.304-96.768t87.552-37.376z" />
<glyph unicode="&#xf7;" glyph-name="divide" d="M218.112 516.352q0 25.6 19.456 45.056t44.032 19.456q27.648 0 46.080-18.944t18.432-45.568-18.432-44.544-46.080-17.92q-25.6 0-44.544 17.92t-18.944 44.544zM76.8 306.432v92.16h409.6v-92.16h-409.6zM218.112 187.648q0 25.6 19.456 45.056t44.032 19.456q27.648 0 46.080-18.944t18.432-45.568-18.432-44.544-46.080-17.92q-25.6 0-44.544 17.92t-18.944 44.544z" />
<glyph unicode="&#xf8;" glyph-name="oslash" horiz-adv-x="594" d="M296.96 32q-72.704 0-129.024 29.696l-16.384-19.456h-120.832l62.464 77.824q-62.464 73.728-62.464 178.176 0 117.76 75.264 192t190.976 74.24q70.656 0 130.048-30.72l16.384 20.48h119.808l-62.464-77.824q62.464-73.728 62.464-178.176 0-117.76-75.264-192t-190.976-74.24zM169.984 298.24q0-34.816 13.312-66.56l159.744 197.632q-22.528 8.192-46.080 8.192-55.296 0-91.136-38.4t-35.84-100.864zM296.96 158.976q55.296 0 91.136 38.912t35.84 100.352q0 34.816-13.312 66.56l-158.72-197.632q21.504-8.192 45.056-8.192z" />
<glyph unicode="&#xf9;" glyph-name="ugrave" horiz-adv-x="594" d="M239.616 656.64l-95.232 153.6h153.6l59.392-153.6h-117.76zM387.072 42.24v72.704q-48.128-82.944-146.432-82.944-81.92 0-133.12 53.248t-51.2 152.576v316.416h148.48v-282.624q0-57.344 23.552-87.040t66.56-29.696 66.048 29.696 23.040 87.040v282.624h148.48v-512h-145.408z" />
<glyph unicode="&#xfa;" glyph-name="uacute" horiz-adv-x="594" d="M357.376 656.64h-117.76l58.368 153.6h153.6zM387.072 42.24v72.704q-48.128-82.944-146.432-82.944-81.92 0-133.12 53.248t-51.2 152.576v316.416h148.48v-282.624q0-57.344 23.552-87.040t66.56-29.696 66.048 29.696 23.040 87.040v282.624h148.48v-512h-145.408z" />
<glyph unicode="&#xfb;" glyph-name="ucircumflex" horiz-adv-x="594" d="M357.376 656.64l-64.512 75.776-63.488-75.776h-115.712l100.352 153.6h158.72l99.328-153.6h-114.688zM387.072 42.24v72.704q-48.128-82.944-146.432-82.944-81.92 0-133.12 53.248t-51.2 152.576v316.416h148.48v-282.624q0-57.344 23.552-87.040t66.56-29.696 66.048 29.696 23.040 87.040v282.624h148.48v-512h-145.408z" />
<glyph unicode="&#xfc;" glyph-name="udieresis" horiz-adv-x="594" d="M397.312 661.76q-28.672 0-49.664 20.992t-20.992 50.688 20.992 50.688 49.664 20.992q30.72 0 51.2-20.992t20.48-50.688-20.48-50.688-51.2-20.992zM188.416 661.76q-28.672 0-50.176 20.992t-21.504 50.688 20.992 50.688 50.688 20.992 50.688-20.992 20.992-50.688-20.992-50.688-50.688-20.992zM387.072 42.24v72.704q-48.128-82.944-146.432-82.944-81.92 0-133.12 53.248t-51.2 152.576v316.416h148.48v-282.624q0-57.344 23.552-87.040t66.56-29.696 66.048 29.696 23.040 87.040v282.624h148.48v-512h-145.408z" />
<glyph unicode="&#xfd;" glyph-name="yacute" horiz-adv-x="513" d="M328.704 656.64h-117.76l58.368 153.6h153.6zM94.208-224q-47.104 0-87.040 11.264v118.784q43.008-10.24 71.68-10.24 72.704 0 111.616 63.488l-186.368 594.944h146.432l104.448-400.384 108.544 400.384h145.408l-165.888-534.528q-34.816-121.856-91.648-182.784t-157.184-60.928z" />
<glyph unicode="&#xfe;" glyph-name="thorn" horiz-adv-x="630" d="M331.776 164.096q53.248 0 87.552 37.376t34.304 96.768q0 60.416-34.304 97.28t-87.552 36.864-87.552-36.864-34.304-97.28q0-59.392 34.304-96.768t87.552-37.376zM361.472 32q-91.136 0-151.552 71.68v-317.44h-148.48v1024h148.48v-317.44q60.416 71.68 151.552 71.68 104.448 0 171.008-73.728t66.56-192.512-66.56-192.512-171.008-73.728z" />
<glyph unicode="&#xff;" glyph-name="ydieresis" horiz-adv-x="513" d="M368.64 661.76q-28.672 0-49.664 20.992t-20.992 50.688 20.992 50.688 49.664 20.992q30.72 0 51.2-20.992t20.48-50.688-20.48-50.688-51.2-20.992zM159.744 661.76q-28.672 0-50.176 20.992t-21.504 50.688 20.992 50.688 50.688 20.992 50.688-20.992 20.992-50.688-20.992-50.688-50.688-20.992zM94.208-224q-47.104 0-87.040 11.264v118.784q43.008-10.24 71.68-10.24 72.704 0 111.616 63.488l-186.368 594.944h146.432l104.448-400.384 108.544 400.384h145.408l-165.888-534.528q-34.816-121.856-91.648-182.784t-157.184-60.928z" />
<glyph unicode="&#x100;" glyph-name="Amacron" horiz-adv-x="522" d="M410.624 984.32v-94.208h-291.84v94.208h291.84zM321.536 326.912l-60.416 370.688-60.416-370.688h120.832zM368.64 42.24l-25.6 156.672h-163.84l-25.6-156.672h-145.408l139.264 768h227.328l140.288-768h-146.432z" />
<glyph unicode="&#x101;" glyph-name="amacron" d="M435.2 759.040v-94.208h-291.84v94.208h291.84zM249.856 141.568q49.152 0 81.92 27.648t32.768 76.8v26.624q-24.576-11.264-74.752-20.992t-77.312-22.016-27.136-38.912q0-23.552 17.92-36.352t46.592-12.8zM367.616 42.24v77.824q-46.080-88.064-162.816-88.064-69.632 0-118.784 37.376t-49.152 109.056q0 51.2 24.064 84.48t60.416 46.592 78.336 22.528 78.336 13.312 60.416 16.896 24.064 36.352q0 26.624-22.528 41.984t-58.368 15.36q-38.912 0-60.928-20.48t-22.016-57.344h-146.432q0 94.208 67.584 140.288t165.888 46.080q97.28 0 161.28-41.984t64-128v-352.256h-143.36z" />
<glyph unicode="&#x102;" glyph-name="Abreve" horiz-adv-x="522" d="M319.488 1035.52h105.472q0-72.704-44.032-114.176t-119.808-41.472q-74.752 0-118.272 40.96t-43.52 114.688h104.448q0-30.72 16.384-46.080t40.96-15.36q58.368 0 58.368 61.44zM321.536 326.912l-60.416 370.688-60.416-370.688h120.832zM368.64 42.24l-25.6 156.672h-163.84l-25.6-156.672h-145.408l139.264 768h227.328l140.288-768h-146.432z" />
<glyph unicode="&#x103;" glyph-name="abreve" d="M344.064 810.24h105.472q0-72.704-44.032-114.176t-119.808-41.472q-74.752 0-118.272 40.96t-43.52 114.688h104.448q0-30.72 16.384-46.080t40.96-15.36q58.368 0 58.368 61.44zM249.856 141.568q49.152 0 81.92 27.648t32.768 76.8v26.624q-24.576-11.264-74.752-20.992t-77.312-22.016-27.136-38.912q0-23.552 17.92-36.352t46.592-12.8zM367.616 42.24v77.824q-46.080-88.064-162.816-88.064-69.632 0-118.784 37.376t-49.152 109.056q0 51.2 24.064 84.48t60.416 46.592 78.336 22.528 78.336 13.312 60.416 16.896 24.064 36.352q0 26.624-22.528 41.984t-58.368 15.36q-38.912 0-60.928-20.48t-22.016-57.344h-146.432q0 94.208 67.584 140.288t165.888 46.080q97.28 0 161.28-41.984t64-128v-352.256h-143.36z" />
<glyph unicode="&#x104;" glyph-name="Aogonek" horiz-adv-x="522" d="M321.536 326.912l-60.416 370.688-60.416-370.688h120.832zM381.952 42.24h-13.312l-25.6 156.672h-163.84l-25.6-156.672h-145.408l139.264 768h227.328l140.288-768h-56.32q-77.824-108.544-77.824-154.624 0-32.768 33.792-32.768 30.72 0 35.84 32.768h93.184q0-47.104-35.84-76.288t-95.232-29.184q-56.32 0-90.112 25.088t-33.792 68.096q0 14.336 4.096 29.184t9.216 25.6 16.896 28.672 17.92 26.112 23.040 29.184 22.016 28.16z" />
<glyph unicode="&#x105;" glyph-name="aogonek" d="M249.856 141.568q49.152 0 81.92 27.648t32.768 76.8v26.624q-24.576-11.264-74.752-20.992t-77.312-22.016-27.136-38.912q0-23.552 17.92-36.352t46.592-12.8zM374.784 42.24h-7.168v77.824q-46.080-88.064-162.816-88.064-69.632 0-118.784 37.376t-49.152 109.056q0 51.2 24.064 84.48t60.416 46.592 78.336 22.528 78.336 13.312 60.416 16.896 24.064 36.352q0 26.624-22.528 41.984t-58.368 15.36q-38.912 0-60.928-20.48t-22.016-57.344h-146.432q0 94.208 67.584 140.288t165.888 46.080q97.28 0 161.28-41.984t64-128v-352.256h-59.392q-77.824-110.592-77.824-154.624 0-32.768 33.792-32.768 30.72 0 35.84 32.768h93.184q0-48.128-35.84-76.8t-95.232-28.672q-56.32 0-90.112 25.088t-33.792 68.096q0 16.384 4.608 32.256t16.384 35.328 18.944 30.208 27.136 35.84 26.112 33.28z" />
<glyph unicode="&#x106;" glyph-name="Cacute" horiz-adv-x="584" d="M356.352 881.92h-117.76l58.368 153.6h153.6zM384 354.56h148.48v-58.368q0-131.072-63.488-199.168t-177.152-68.096q-114.688 0-177.664 68.096t-62.976 199.168v261.12q0 131.072 62.976 198.656t177.664 67.584 177.664-67.584 62.976-198.656v-49.152h-148.48v51.2q0 71.68-23.552 102.4t-68.608 30.72-68.608-30.72-23.552-102.4v-266.24q0-71.68 23.552-102.4t68.608-30.72 68.608 30.72 23.552 102.4v61.44z" />
<glyph unicode="&#x107;" glyph-name="cacute" horiz-adv-x="586" d="M357.376 656.64h-117.76l58.368 153.6h153.6zM551.936 358.656h-151.552q-9.216 35.84-38.4 54.784t-68.096 18.944q-52.224 0-84.992-36.864t-32.768-97.28 32.768-97.28 84.992-36.864q39.936 0 69.632 22.016t38.912 62.976h151.552q-10.24-98.304-81.92-157.696t-179.2-59.392q-113.664 0-187.904 74.752t-74.24 191.488 74.24 191.488 187.904 74.752q104.448 0 174.592-56.32t84.48-149.504z" />
<glyph unicode="&#x108;" glyph-name="Ccircumflex" horiz-adv-x="584" d="M355.328 881.92l-64.512 75.776-63.488-75.776h-115.712l100.352 153.6h158.72l99.328-153.6h-114.688zM384 354.56h148.48v-58.368q0-131.072-63.488-199.168t-177.152-68.096q-114.688 0-177.664 68.096t-62.976 199.168v261.12q0 131.072 62.976 198.656t177.664 67.584 177.664-67.584 62.976-198.656v-49.152h-148.48v51.2q0 71.68-23.552 102.4t-68.608 30.72-68.608-30.72-23.552-102.4v-266.24q0-71.68 23.552-102.4t68.608-30.72 68.608 30.72 23.552 102.4v61.44z" />
<glyph unicode="&#x109;" glyph-name="ccircumflex" horiz-adv-x="586" d="M357.376 656.64l-64.512 75.776-63.488-75.776h-115.712l100.352 153.6h158.72l99.328-153.6h-114.688zM551.936 358.656h-151.552q-9.216 35.84-38.4 54.784t-68.096 18.944q-52.224 0-84.992-36.864t-32.768-97.28 32.768-97.28 84.992-36.864q39.936 0 69.632 22.016t38.912 62.976h151.552q-10.24-98.304-81.92-157.696t-179.2-59.392q-113.664 0-187.904 74.752t-74.24 191.488 74.24 191.488 187.904 74.752q104.448 0 174.592-56.32t84.48-149.504z" />
<glyph unicode="&#x10a;" glyph-name="Cdotaccent" horiz-adv-x="584" d="M291.84 879.872q-33.792 0-56.32 23.040t-22.528 55.808q0 34.816 22.528 57.344t56.32 22.528q34.816 0 57.344-22.528t22.528-57.344q0-33.792-23.040-56.32t-56.832-22.528zM384 354.56h148.48v-58.368q0-131.072-63.488-199.168t-177.152-68.096q-114.688 0-177.664 68.096t-62.976 199.168v261.12q0 131.072 62.976 198.656t177.664 67.584 177.664-67.584 62.976-198.656v-49.152h-148.48v51.2q0 71.68-23.552 102.4t-68.608 30.72-68.608-30.72-23.552-102.4v-266.24q0-71.68 23.552-102.4t68.608-30.72 68.608 30.72 23.552 102.4v61.44z" />
<glyph unicode="&#x10b;" glyph-name="cdotaccent" horiz-adv-x="586" d="M292.864 654.592q-33.792 0-56.32 23.040t-22.528 55.808q0 34.816 22.528 57.344t56.32 22.528q34.816 0 57.344-22.528t22.528-57.344q0-33.792-22.528-56.32t-57.344-22.528zM551.936 358.656h-151.552q-9.216 35.84-38.4 54.784t-68.096 18.944q-52.224 0-84.992-36.864t-32.768-97.28 32.768-97.28 84.992-36.864q39.936 0 69.632 22.016t38.912 62.976h151.552q-10.24-98.304-81.92-157.696t-179.2-59.392q-113.664 0-187.904 74.752t-74.24 191.488 74.24 191.488 187.904 74.752q104.448 0 174.592-56.32t84.48-149.504z" />
<glyph unicode="&#x10c;" glyph-name="Ccaron" horiz-adv-x="584" d="M211.968 881.92l-100.352 153.6h115.712l63.488-75.776 64.512 75.776h114.688l-99.328-153.6h-158.72zM384 354.56h148.48v-58.368q0-131.072-63.488-199.168t-177.152-68.096q-114.688 0-177.664 68.096t-62.976 199.168v261.12q0 131.072 62.976 198.656t177.664 67.584 177.664-67.584 62.976-198.656v-49.152h-148.48v51.2q0 71.68-23.552 102.4t-68.608 30.72-68.608-30.72-23.552-102.4v-266.24q0-71.68 23.552-102.4t68.608-30.72 68.608 30.72 23.552 102.4v61.44z" />
<glyph unicode="&#x10d;" glyph-name="ccaron" horiz-adv-x="586" d="M214.016 656.64l-100.352 153.6h115.712l63.488-75.776 64.512 75.776h114.688l-99.328-153.6h-158.72zM551.936 358.656h-151.552q-9.216 35.84-38.4 54.784t-68.096 18.944q-52.224 0-84.992-36.864t-32.768-97.28 32.768-97.28 84.992-36.864q39.936 0 69.632 22.016t38.912 62.976h151.552q-10.24-98.304-81.92-157.696t-179.2-59.392q-113.664 0-187.904 74.752t-74.24 191.488 74.24 191.488 187.904 74.752q104.448 0 174.592-56.32t84.48-149.504z" />
<glyph unicode="&#x10e;" glyph-name="Dcaron" horiz-adv-x="584" d="M203.776 881.92l-100.352 153.6h115.712l63.488-75.776 64.512 75.776h114.688l-99.328-153.6h-158.72zM291.84 810.24q113.664 0 177.152-65.536t63.488-192.512v-250.88q0-128-62.976-193.536t-177.664-65.536h-230.4v768h230.4zM291.84 173.312q45.056 0 68.608 28.672t23.552 96.256v256q0 67.584-23.552 96.768t-68.608 29.184h-81.92v-506.88h81.92z" />
<glyph unicode="&#x10f;" glyph-name="dcaron" horiz-adv-x="630" d="M638.976 810.24h130.048l-49.152-194.56h-80.896v194.56zM297.984 432.384q-53.248 0-87.040-36.864t-33.792-97.28 33.792-97.28 87.040-36.864 87.552 36.864 34.304 97.28-34.304 97.28-87.552 36.864zM422.912 42.24v65.536q-59.392-75.776-153.6-75.776-105.472 0-172.032 73.728t-66.56 192.512 66.56 192.512 172.032 73.728q90.112 0 150.528-71.68v317.44h148.48v-768h-145.408z" />
<glyph unicode="&#x110;" glyph-name="Dcroat" horiz-adv-x="584" d="M291.84 42.24h-230.4v346.112h-61.44v94.208h61.44v327.68h230.4q113.664 0 177.152-65.536t63.488-192.512v-250.88q0-128-62.976-193.536t-177.664-65.536zM209.92 173.312h81.92q45.056 0 68.608 28.672t23.552 96.256v256q0 67.584-23.552 96.768t-68.608 29.184h-81.92v-197.632h88.064v-94.208h-88.064v-215.040z" />
<glyph unicode="&#x111;" glyph-name="dcroat" horiz-adv-x="630" d="M297.984 432.384q-53.248 0-87.040-36.864t-33.792-97.28q0-59.392 34.304-96.768t86.528-37.376q53.248 0 87.552 37.376t34.304 96.768q0 60.416-34.304 97.28t-87.552 36.864zM422.912 42.24v65.536q-59.392-75.776-153.6-75.776-105.472 0-172.032 73.728t-66.56 192.512 66.56 192.512 172.032 73.728q90.112 0 150.528-71.68v154.624h-126.976v81.92h126.976v80.896h148.48v-80.896h61.44v-81.92h-61.44v-605.184h-145.408z" />
<glyph unicode="&#x112;" glyph-name="Emacron" horiz-adv-x="465" d="M398.336 984.32v-94.208h-291.84v94.208h291.84zM61.44 42.24v768h367.616v-130.048h-220.16v-179.2h199.68v-131.072h-199.68v-196.608h220.16v-131.072h-367.616z" />
<glyph unicode="&#x113;" glyph-name="emacron" horiz-adv-x="580" d="M439.296 759.040v-94.208h-291.84v94.208h291.84zM289.792 442.624q-97.28 0-115.712-98.304h231.424q-18.432 98.304-115.712 98.304zM536.576 204.032q-23.552-83.968-87.552-128t-159.232-44.032q-113.664 0-186.368 74.752t-72.704 191.488 72.704 191.488 186.368 74.752 186.368-74.752 72.704-191.488q0-14.336-2.048-40.96h-373.76q18.432-103.424 120.832-103.424 70.656 0 92.16 50.176h150.528z" />
<glyph unicode="&#x114;" glyph-name="Ebreve" horiz-adv-x="465" d="M307.2 1035.52h105.472q0-72.704-44.032-114.176t-119.808-41.472q-74.752 0-118.272 40.96t-43.52 114.688h104.448q0-30.72 16.384-46.080t40.96-15.36q58.368 0 58.368 61.44zM61.44 42.24v768h367.616v-130.048h-220.16v-179.2h199.68v-131.072h-199.68v-196.608h220.16v-131.072h-367.616z" />
<glyph unicode="&#x115;" glyph-name="ebreve" horiz-adv-x="580" d="M348.16 810.24h105.472q0-72.704-44.032-114.176t-119.808-41.472q-74.752 0-118.272 40.96t-43.52 114.688h104.448q0-30.72 16.384-46.080t40.96-15.36q58.368 0 58.368 61.44zM289.792 442.624q-97.28 0-115.712-98.304h231.424q-18.432 98.304-115.712 98.304zM536.576 204.032q-23.552-83.968-87.552-128t-159.232-44.032q-113.664 0-186.368 74.752t-72.704 191.488 72.704 191.488 186.368 74.752 186.368-74.752 72.704-191.488q0-14.336-2.048-40.96h-373.76q18.432-103.424 120.832-103.424 70.656 0 92.16 50.176h150.528z" />
<glyph unicode="&#x116;" glyph-name="Edotaccent" horiz-adv-x="465" d="M248.832 879.872q-33.792 0-56.32 23.040t-22.528 55.808q0 34.816 22.528 57.344t56.32 22.528q34.816 0 57.344-22.528t22.528-57.344q0-33.792-23.040-56.32t-56.832-22.528zM61.44 42.24v768h367.616v-130.048h-220.16v-179.2h199.68v-131.072h-199.68v-196.608h220.16v-131.072h-367.616z" />
<glyph unicode="&#x117;" glyph-name="edotaccent" horiz-adv-x="580" d="M289.792 654.592q-33.792 0-56.32 23.040t-22.528 55.808q0 34.816 22.528 57.344t56.32 22.528q34.816 0 57.344-22.528t22.528-57.344q0-33.792-23.040-56.32t-56.832-22.528zM289.792 442.624q-97.28 0-115.712-98.304h231.424q-18.432 98.304-115.712 98.304zM536.576 204.032q-23.552-83.968-87.552-128t-159.232-44.032q-113.664 0-186.368 74.752t-72.704 191.488 72.704 191.488 186.368 74.752 186.368-74.752 72.704-191.488q0-14.336-2.048-40.96h-373.76q18.432-103.424 120.832-103.424 70.656 0 92.16 50.176h150.528z" />
<glyph unicode="&#x118;" glyph-name="Eogonek" horiz-adv-x="465" d="M61.44 42.24v768h367.616v-130.048h-220.16v-179.2h199.68v-131.072h-199.68v-196.608h220.16v-131.072h-367.616zM297.984-217.856q-56.32 0-90.112 25.088t-33.792 68.096q0 16.384 4.608 32.256t16.384 35.328 18.944 30.208 27.136 35.84 26.112 33.28h76.8q-77.824-108.544-77.824-154.624 0-32.768 33.792-32.768 30.72 0 35.84 32.768h93.184q0-48.128-35.84-76.8t-95.232-28.672z" />
<glyph unicode="&#x119;" glyph-name="eogonek" horiz-adv-x="580" d="M289.792 442.624q-97.28 0-115.712-98.304h231.424q-18.432 98.304-115.712 98.304zM534.528-112.384q-1.024-43.008-34.304-72.192t-85.504-29.184q-54.272 0-87.040 26.112t-32.768 69.12q0 15.36 4.096 31.744t8.704 27.136 16.384 28.16 16.896 25.088 21.504 27.648 20.48 25.088q-45.056-14.336-93.184-14.336-113.664 0-186.368 74.752t-72.704 191.488 72.704 191.488 186.368 74.752 186.368-74.752 72.704-191.488q0-14.336-2.048-40.96h-373.76q18.432-103.424 120.832-103.424 70.656 0 92.16 50.176h150.528q-11.264-49.152-51.712-113.152t-74.752-116.224-34.304-81.92q0-37.888 38.912-37.888 14.336 0 25.088 9.216t12.8 23.552h81.92z" />
<glyph unicode="&#x11a;" glyph-name="Ecaron" horiz-adv-x="465" d="M168.96 881.92l-100.352 153.6h115.712l63.488-75.776 64.512 75.776h114.688l-99.328-153.6h-158.72zM61.44 42.24v768h367.616v-130.048h-220.16v-179.2h199.68v-131.072h-199.68v-196.608h220.16v-131.072h-367.616z" />
<glyph unicode="&#x11b;" glyph-name="ecaron" horiz-adv-x="580" d="M210.944 656.64l-100.352 153.6h115.712l63.488-75.776 64.512 75.776h114.688l-99.328-153.6h-158.72zM289.792 442.624q-97.28 0-115.712-98.304h231.424q-18.432 98.304-115.712 98.304zM536.576 204.032q-23.552-83.968-87.552-128t-159.232-44.032q-113.664 0-186.368 74.752t-72.704 191.488 72.704 191.488 186.368 74.752 186.368-74.752 72.704-191.488q0-14.336-2.048-40.96h-373.76q18.432-103.424 120.832-103.424 70.656 0 92.16 50.176h150.528z" />
<glyph unicode="&#x11c;" glyph-name="Gcircumflex" horiz-adv-x="589" d="M355.328 881.92l-64.512 75.776-63.488-75.776h-115.712l100.352 153.6h158.72l99.328-153.6h-114.688zM413.696 42.24v79.872q-46.080-93.184-152.576-93.184-99.328 0-154.624 68.096t-55.296 199.168v261.12q0 131.072 62.976 198.656t177.664 67.584 177.664-67.584 62.976-198.656v-34.816h-148.48v36.864q0 71.68-23.552 102.4t-68.608 30.72-68.608-30.72-23.552-102.4v-266.24q0-71.68 23.552-102.4t68.608-30.72q92.16 0 92.16 125.952v40.96h-104.448v124.928h252.928v-409.6h-118.784z" />
<glyph unicode="&#x11d;" glyph-name="gcircumflex" horiz-adv-x="553" d="M330.752 656.64l-64.512 75.776-63.488-75.776h-115.712l100.352 153.6h158.72l99.328-153.6h-114.688zM266.24 301.312q33.792 0 55.808 20.992t22.016 54.784q0 34.816-21.504 55.808t-56.32 20.992-56.32-20.992-21.504-55.808q0-33.792 22.016-54.784t55.808-20.992zM541.696-55.040q0-76.8-61.44-122.88t-184.32-46.080h-35.84q-117.76 0-178.176 37.888t-60.416 100.352q0 66.56 77.824 102.4-67.584 35.84-67.584 104.448 0 40.96 24.576 71.168t69.632 44.544q-68.608 53.248-68.608 140.288 0 80.896 60.416 134.144t148.48 53.248q92.16 0 152.576-57.344l20.48 30.72q10.24 15.36 20.48 20.992t30.72 5.632h52.224v-134.144h-75.776q8.192-26.624 8.192-53.248 0-81.92-60.928-134.656t-147.968-52.736q-43.008 0-82.944 14.336-15.36-4.096-25.088-15.36t-9.728-27.648q0-47.104 64.512-47.104h110.592q218.112 0 218.112-168.96zM273.408-111.36h19.456q116.736 0 116.736 57.344 0 50.176-101.376 50.176h-53.248q-102.4 0-102.4-50.176 0-57.344 120.832-57.344z" />
<glyph unicode="&#x11e;" glyph-name="Gbreve" horiz-adv-x="589" d="M350.208 1035.52h105.472q0-72.704-44.032-114.176t-119.808-41.472q-74.752 0-118.272 40.96t-43.52 114.688h104.448q0-30.72 16.384-46.080t40.96-15.36q58.368 0 58.368 61.44zM413.696 42.24v79.872q-46.080-93.184-152.576-93.184-99.328 0-154.624 68.096t-55.296 199.168v261.12q0 131.072 62.976 198.656t177.664 67.584 177.664-67.584 62.976-198.656v-34.816h-148.48v36.864q0 71.68-23.552 102.4t-68.608 30.72-68.608-30.72-23.552-102.4v-266.24q0-71.68 23.552-102.4t68.608-30.72q92.16 0 92.16 125.952v40.96h-104.448v124.928h252.928v-409.6h-118.784z" />
<glyph unicode="&#x11f;" glyph-name="gbreve" horiz-adv-x="553" d="M324.608 810.24h105.472q0-72.704-44.032-114.176t-119.808-41.472q-74.752 0-118.272 40.96t-43.52 114.688h104.448q0-30.72 16.384-46.080t40.96-15.36q58.368 0 58.368 61.44zM266.24 301.312q33.792 0 55.808 20.992t22.016 54.784q0 34.816-21.504 55.808t-56.32 20.992-56.32-20.992-21.504-55.808q0-33.792 22.016-54.784t55.808-20.992zM541.696-55.040q0-76.8-61.44-122.88t-184.32-46.080h-35.84q-117.76 0-178.176 37.888t-60.416 100.352q0 66.56 77.824 102.4-67.584 35.84-67.584 104.448 0 40.96 24.576 71.168t69.632 44.544q-68.608 53.248-68.608 140.288 0 80.896 60.416 134.144t148.48 53.248q92.16 0 152.576-57.344l20.48 30.72q10.24 15.36 20.48 20.992t30.72 5.632h52.224v-134.144h-75.776q8.192-26.624 8.192-53.248 0-81.92-60.928-134.656t-147.968-52.736q-43.008 0-82.944 14.336-15.36-4.096-25.088-15.36t-9.728-27.648q0-47.104 64.512-47.104h110.592q218.112 0 218.112-168.96zM273.408-111.36h19.456q116.736 0 116.736 57.344 0 50.176-101.376 50.176h-53.248q-102.4 0-102.4-50.176 0-57.344 120.832-57.344z" />
<glyph unicode="&#x120;" glyph-name="Gdotaccent" horiz-adv-x="589" d="M291.84 879.872q-33.792 0-56.32 23.040t-22.528 55.808q0 34.816 22.528 57.344t56.32 22.528q34.816 0 57.344-22.528t22.528-57.344q0-33.792-23.040-56.32t-56.832-22.528zM413.696 42.24v79.872q-46.080-93.184-152.576-93.184-99.328 0-154.624 68.096t-55.296 199.168v261.12q0 131.072 62.976 198.656t177.664 67.584 177.664-67.584 62.976-198.656v-34.816h-148.48v36.864q0 71.68-23.552 102.4t-68.608 30.72-68.608-30.72-23.552-102.4v-266.24q0-71.68 23.552-102.4t68.608-30.72q92.16 0 92.16 125.952v40.96h-104.448v124.928h252.928v-409.6h-118.784z" />
<glyph unicode="&#x121;" glyph-name="gdotaccent" horiz-adv-x="553" d="M266.24 654.592q-33.792 0-56.32 23.040t-22.528 55.808q0 34.816 22.528 57.344t56.32 22.528q34.816 0 57.344-22.528t22.528-57.344q0-33.792-22.528-56.32t-57.344-22.528zM266.24 301.312q33.792 0 55.808 20.992t22.016 54.784q0 34.816-21.504 55.808t-56.32 20.992-56.32-20.992-21.504-55.808q0-33.792 22.016-54.784t55.808-20.992zM541.696-55.040q0-76.8-61.44-122.88t-184.32-46.080h-35.84q-117.76 0-178.176 37.888t-60.416 100.352q0 66.56 77.824 102.4-67.584 35.84-67.584 104.448 0 40.96 24.576 71.168t69.632 44.544q-68.608 53.248-68.608 140.288 0 80.896 60.416 134.144t148.48 53.248q92.16 0 152.576-57.344l20.48 30.72q10.24 15.36 20.48 20.992t30.72 5.632h52.224v-134.144h-75.776q8.192-26.624 8.192-53.248 0-81.92-60.928-134.656t-147.968-52.736q-43.008 0-82.944 14.336-15.36-4.096-25.088-15.36t-9.728-27.648q0-47.104 64.512-47.104h110.592q218.112 0 218.112-168.96zM273.408-111.36h19.456q116.736 0 116.736 57.344 0 50.176-101.376 50.176h-53.248q-102.4 0-102.4-50.176 0-57.344 120.832-57.344z" />
<glyph unicode="&#x122;" glyph-name="Gcommaaccent" horiz-adv-x="589" d="M413.696 42.24v79.872q-46.080-93.184-152.576-93.184-99.328 0-154.624 68.096t-55.296 199.168v261.12q0 131.072 62.976 198.656t177.664 67.584 177.664-67.584 62.976-198.656v-34.816h-148.48v36.864q0 71.68-23.552 102.4t-68.608 30.72-68.608-30.72-23.552-102.4v-266.24q0-71.68 23.552-102.4t68.608-30.72q92.16 0 92.16 125.952v40.96h-104.448v124.928h252.928v-409.6h-118.784zM272.384-172.8h-97.28l25.6 153.6h145.408z" />
<glyph unicode="&#x123;" glyph-name="gcommaaccent" horiz-adv-x="553" d="M275.456 840.96h97.28l-25.6-153.6h-146.432zM266.24 301.312q33.792 0 55.808 20.992t22.016 54.784q0 34.816-21.504 55.808t-56.32 20.992-56.32-20.992-21.504-55.808q0-33.792 22.016-54.784t55.808-20.992zM541.696-55.040q0-76.8-61.44-122.88t-184.32-46.080h-35.84q-117.76 0-178.176 37.888t-60.416 100.352q0 66.56 77.824 102.4-67.584 35.84-67.584 104.448 0 40.96 24.576 71.168t69.632 44.544q-68.608 53.248-68.608 140.288 0 80.896 60.416 134.144t148.48 53.248q92.16 0 152.576-57.344l20.48 30.72q10.24 15.36 20.48 20.992t30.72 5.632h52.224v-134.144h-75.776q8.192-26.624 8.192-53.248 0-81.92-60.928-134.656t-147.968-52.736q-43.008 0-82.944 14.336-15.36-4.096-25.088-15.36t-9.728-27.648q0-47.104 64.512-47.104h110.592q218.112 0 218.112-168.96zM273.408-111.36h19.456q116.736 0 116.736 57.344 0 50.176-101.376 50.176h-53.248q-102.4 0-102.4-50.176 0-57.344 120.832-57.344z" />
<glyph unicode="&#x124;" glyph-name="Hcircumflex" horiz-adv-x="604" d="M365.568 881.92l-64.512 75.776-63.488-75.776h-115.712l100.352 153.6h158.72l99.328-153.6h-114.688zM394.24 42.24v328.704h-184.32v-328.704h-148.48v768h148.48v-308.224h184.32v308.224h148.48v-768h-148.48z" />
<glyph unicode="&#x125;" glyph-name="hcircumflex" horiz-adv-x="599" d="M365.568 881.92l-64.512 75.776-63.488-75.776h-115.712l100.352 153.6h158.72l99.328-153.6h-114.688zM209.92 324.864v-282.624h-148.48v768h148.48v-324.608q50.176 78.848 146.432 78.848 82.944 0 134.656-53.248t51.712-152.576v-316.416h-148.48v282.624q0 57.344-24.064 87.040t-68.096 29.696-68.096-29.696-24.064-87.040z" />
<glyph unicode="&#x126;" glyph-name="Hbar" horiz-adv-x="604" d="M394.24 502.016v107.52h-184.32v-107.52h184.32zM394.24 42.24v328.704h-184.32v-328.704h-148.48v567.296h-61.44v94.208h61.44v106.496h148.48v-106.496h184.32v106.496h148.48v-106.496h61.44v-94.208h-61.44v-567.296h-148.48z" />
<glyph unicode="&#x127;" glyph-name="hbar" horiz-adv-x="599" d="M209.92 324.864v-282.624h-148.48v605.184h-61.44v81.92h61.44v80.896h148.48v-80.896h126.976v-81.92h-126.976v-161.792q50.176 78.848 146.432 78.848 82.944 0 134.656-53.248t51.712-152.576v-316.416h-148.48v282.624q0 57.344-24.064 87.040t-68.096 29.696-68.096-29.696-24.064-87.040z" />
<glyph unicode="&#x128;" glyph-name="Itilde" horiz-adv-x="271" d="M-40.96 881.92v49.152q0 104.448 90.112 104.448 34.816 0 82.944-26.112t63.488-26.112q29.696 0 29.696 34.816v17.408h87.040v-48.128q0-105.472-91.136-105.472-34.816 0-82.432 26.112t-62.976 26.112q-29.696 0-29.696-34.816v-17.408h-87.040zM209.92 42.24h-148.48v768h148.48v-768z" />
<glyph unicode="&#x129;" glyph-name="itilde" horiz-adv-x="271" d="M-40.96 656.64v49.152q0 104.448 90.112 104.448 34.816 0 82.944-26.112t63.488-26.112q29.696 0 29.696 34.816v17.408h87.040v-48.128q0-105.472-91.136-105.472-34.816 0-82.432 26.112t-62.976 26.112q-29.696 0-29.696-34.816v-17.408h-87.040zM209.92 42.24h-148.48v512h148.48v-512z" />
<glyph unicode="&#x12a;" glyph-name="Imacron" horiz-adv-x="271" d="M284.672 984.32v-94.208h-291.84v94.208h291.84zM209.92 42.24h-148.48v768h148.48v-768z" />
<glyph unicode="&#x12b;" glyph-name="imacron" horiz-adv-x="271" d="M284.672 759.040v-94.208h-291.84v94.208h291.84zM209.92 42.24h-148.48v512h148.48v-512z" />
<glyph unicode="&#x12c;" glyph-name="Ibreve" horiz-adv-x="271" d="M193.536 1035.52h105.472q0-72.704-44.032-114.176t-119.808-41.472q-74.752 0-118.272 40.96t-43.52 114.688h104.448q0-30.72 16.384-46.080t40.96-15.36q58.368 0 58.368 61.44zM209.92 42.24h-148.48v768h148.48v-768z" />
<glyph unicode="&#x12d;" glyph-name="ibreve" horiz-adv-x="271" d="M193.536 810.24h105.472q0-72.704-44.032-114.176t-119.808-41.472q-74.752 0-118.272 40.96t-43.52 114.688h104.448q0-30.72 16.384-46.080t40.96-15.36q58.368 0 58.368 61.44zM209.92 42.24h-148.48v512h148.48v-512z" />
<glyph unicode="&#x12e;" glyph-name="Iogonek" horiz-adv-x="271" d="M101.376 42.24h-39.936v768h148.48v-768h-31.744q-77.824-108.544-77.824-154.624 0-32.768 33.792-32.768 30.72 0 35.84 32.768h93.184q0-48.128-35.84-76.8t-95.232-28.672q-56.32 0-90.112 25.088t-33.792 68.096q0 16.384 4.608 32.256t16.384 35.328 18.944 30.208 27.136 35.84 26.112 33.28z" />
<glyph unicode="&#x12f;" glyph-name="iogonek" horiz-adv-x="271" d="M136.192 643.328q-37.888 0-63.488 25.088t-25.6 60.928q0 36.864 25.6 61.44t63.488 24.576 62.976-24.576 25.088-61.44-25.088-61.44-62.976-24.576zM101.376 42.24h-39.936v512h148.48v-512h-31.744q-77.824-108.544-77.824-154.624 0-32.768 33.792-32.768 30.72 0 35.84 32.768h93.184q0-48.128-35.84-76.8t-95.232-28.672q-56.32 0-90.112 25.088t-33.792 68.096q0 16.384 4.608 32.256t16.384 35.328 18.944 30.208 27.136 35.84 26.112 33.28z" />
<glyph unicode="&#x130;" glyph-name="Idotaccent" horiz-adv-x="271" d="M135.168 879.872q-33.792 0-56.32 23.040t-22.528 55.808q0 34.816 22.528 57.344t56.32 22.528q34.816 0 57.344-22.528t22.528-57.344q0-33.792-22.528-56.32t-57.344-22.528zM209.92 42.24h-148.48v768h148.48v-768z" />
<glyph unicode="&#x131;" glyph-name="dotlessi" horiz-adv-x="271" d="M209.92 42.24h-148.48v512h148.48v-512z" />
<glyph unicode="&#x132;" glyph-name="IJ" horiz-adv-x="807" d="M209.92 42.24h-148.48v768h148.48v-768zM605.184 810.24h148.48v-555.008q0-109.568-61.44-167.936t-161.792-58.368q-99.328 0-161.28 58.368t-61.952 167.936v80.896h148.48v-75.776q0-100.352 74.752-100.352 36.864 0 55.808 22.528t18.944 77.824v549.888z" />
<glyph unicode="&#x133;" glyph-name="ij" horiz-adv-x="543" d="M407.552 643.328q-37.888 0-63.488 25.088t-25.6 60.928q0 36.864 25.6 61.44t63.488 24.576 62.976-24.576 25.088-61.44-25.088-61.44-62.976-24.576zM136.192 643.328q-37.888 0-63.488 25.088t-25.6 60.928q0 36.864 25.6 61.44t63.488 24.576 62.976-24.576 25.088-61.44-25.088-61.44-62.976-24.576zM209.92 42.24h-148.48v512h148.48v-512zM332.8-25.344v579.584h148.48v-584.704q0-186.368-188.416-186.368-40.96 0-65.536 6.144v122.88q18.432-3.072 38.912-3.072 33.792 0 50.176 14.336t16.384 51.2z" />
<glyph unicode="&#x134;" glyph-name="Jcircumflex" horiz-adv-x="536" d="M471.040 881.92l-64.512 75.776-63.488-75.776h-115.712l100.352 153.6h158.72l99.328-153.6h-114.688zM333.824 810.24h148.48v-555.008q0-109.568-61.44-167.936t-161.792-58.368q-99.328 0-161.28 58.368t-61.952 167.936v80.896h148.48v-75.776q0-100.352 74.752-100.352 36.864 0 55.808 22.528t18.944 77.824v549.888z" />
<glyph unicode="&#x135;" glyph-name="jcircumflex" horiz-adv-x="271" d="M199.68 656.64l-64.512 75.776-63.488-75.776h-115.712l100.352 153.6h158.72l99.328-153.6h-114.688zM61.44-25.344v579.584h148.48v-584.704q0-186.368-188.416-186.368-40.96 0-65.536 6.144v122.88q18.432-3.072 38.912-3.072 33.792 0 50.176 14.336t16.384 51.2z" />
<glyph unicode="&#x136;" glyph-name="Kcommaaccent" horiz-adv-x="536" d="M366.592 42.24l-157.696 370.688v-370.688h-147.456v768h147.456v-368.64l159.744 368.64h157.696l-176.128-362.496 185.344-405.504h-168.96zM267.264-172.8h-97.28l25.6 153.6h145.408z" />
<glyph unicode="&#x137;" glyph-name="kcommaaccent" horiz-adv-x="579" d="M396.288 42.24l-186.368 268.288v-268.288h-148.48v768h148.48v-477.184l168.96 221.184h181.248l-197.632-231.424 208.896-280.576h-175.104zM288.768-172.8h-97.28l25.6 153.6h145.408z" />
<glyph unicode="&#x139;" glyph-name="Lacute" horiz-adv-x="444" d="M197.632 881.92h-117.76l58.368 153.6h153.6zM61.44 42.24v768h148.48v-636.928h224.256v-131.072h-372.736z" />
<glyph unicode="&#x13a;" glyph-name="lacute" horiz-adv-x="271" d="M194.56 881.92h-117.76l58.368 153.6h153.6zM209.92 42.24h-148.48v768h148.48v-768z" />
<glyph unicode="&#x13b;" glyph-name="Lcommaaccent" horiz-adv-x="444" d="M61.44 42.24v768h148.48v-636.928h224.256v-131.072h-372.736zM254.976-172.8h-97.28l25.6 153.6h145.408z" />
<glyph unicode="&#x13c;" glyph-name="lcommaaccent" horiz-adv-x="271" d="M209.92 42.24h-148.48v768h148.48v-768zM134.144-172.8h-97.28l25.6 153.6h145.408z" />
<glyph unicode="&#x13d;" glyph-name="Lcaron" horiz-adv-x="444" d="M261.12 810.24h130.048l-49.152-194.56h-80.896v194.56zM61.44 42.24v768h148.48v-636.928h224.256v-131.072h-372.736z" />
<glyph unicode="&#x13e;" glyph-name="lcaron" horiz-adv-x="271" d="M268.288 810.24h130.048l-49.152-194.56h-80.896v194.56zM209.92 42.24h-148.48v768h148.48v-768z" />
<glyph unicode="&#x13f;" glyph-name="Ldot" horiz-adv-x="444" d="M358.4 361.728q-33.792 0-56.32 23.040t-22.528 55.808q0 34.816 22.528 57.344t56.32 22.528q34.816 0 57.344-22.528t22.528-57.344q0-33.792-22.528-56.32t-57.344-22.528zM61.44 42.24v768h148.48v-636.928h224.256v-131.072h-372.736z" />
<glyph unicode="&#x140;" glyph-name="ldot" horiz-adv-x="271" d="M209.92 42.24h-148.48v768h148.48v-768zM320.512 353.536q-33.792 0-56.32 23.040t-22.528 55.808q0 34.816 22.528 57.344t56.32 22.528q34.816 0 57.344-22.528t22.528-57.344q0-33.792-23.040-56.32t-56.832-22.528z" />
<glyph unicode="&#x141;" glyph-name="Lslash" horiz-adv-x="444" d="M61.44 42.24v271.36l-64.512-37.888v112.64l64.512 37.888v384h148.48v-294.912l97.28 57.344v-112.64l-97.28-57.344v-229.376h224.256v-131.072h-372.736z" />
<glyph unicode="&#x142;" glyph-name="lslash" horiz-adv-x="271" d="M209.92 42.24h-148.48v282.624l-64.512-37.888v112.64l64.512 37.888v372.736h148.48v-283.648l64.512 37.888v-112.64l-64.512-37.888v-371.712z" />
<glyph unicode="&#x143;" glyph-name="Nacute" horiz-adv-x="604" d="M366.592 881.92h-117.76l58.368 153.6h153.6zM315.392 42.24l-126.976 665.6v-665.6h-126.976v768h228.352l125.952-656.384v656.384h126.976v-768h-227.328z" />
<glyph unicode="&#x144;" glyph-name="nacute" horiz-adv-x="599" d="M366.592 656.64h-117.76l58.368 153.6h153.6zM209.92 324.864v-282.624h-148.48v512h146.432v-72.704q48.128 82.944 148.48 82.944 82.944 0 134.656-53.248t51.712-152.576v-316.416h-148.48v282.624q0 57.344-24.064 87.040t-68.096 29.696-68.096-29.696-24.064-87.040z" />
<glyph unicode="&#x145;" glyph-name="Ncommaaccent" horiz-adv-x="604" d="M315.392 42.24l-126.976 665.6v-665.6h-126.976v768h228.352l125.952-656.384v656.384h126.976v-768h-227.328zM301.056-172.8h-97.28l25.6 153.6h145.408z" />
<glyph unicode="&#x146;" glyph-name="ncommaaccent" horiz-adv-x="599" d="M209.92 324.864v-282.624h-148.48v512h146.432v-72.704q48.128 82.944 148.48 82.944 82.944 0 134.656-53.248t51.712-152.576v-316.416h-148.48v282.624q0 57.344-24.064 87.040t-68.096 29.696-68.096-29.696-24.064-87.040zM301.056-172.8h-97.28l25.6 153.6h145.408z" />
<glyph unicode="&#x147;" glyph-name="Ncaron" horiz-adv-x="604" d="M222.208 881.92l-100.352 153.6h115.712l63.488-75.776 64.512 75.776h114.688l-99.328-153.6h-158.72zM315.392 42.24l-126.976 665.6v-665.6h-126.976v768h228.352l125.952-656.384v656.384h126.976v-768h-227.328z" />
<glyph unicode="&#x148;" glyph-name="ncaron" horiz-adv-x="599" d="M223.232 656.64l-100.352 153.6h115.712l63.488-75.776 64.512 75.776h114.688l-99.328-153.6h-158.72zM209.92 324.864v-282.624h-148.48v512h146.432v-72.704q48.128 82.944 148.48 82.944 82.944 0 134.656-53.248t51.712-152.576v-316.416h-148.48v282.624q0 57.344-24.064 87.040t-68.096 29.696-68.096-29.696-24.064-87.040z" />
<glyph unicode="&#x14a;" glyph-name="Eng" horiz-adv-x="604" d="M364.544-216.832q-40.96 0-67.584 6.144v122.88q18.432-3.072 38.912-3.072 79.872 0 79.872 65.536v67.584h-100.352l-126.976 652.288v-652.288h-126.976v768h228.352l125.952-643.072v643.072h126.976v-840.704q0-186.368-178.176-186.368z" />
<glyph unicode="&#x14b;" glyph-name="eng" horiz-adv-x="599" d="M354.304-216.832q-39.936 0-64.512 6.144v122.88q18.432-3.072 37.888-3.072 33.792 0 50.176 14.336t16.384 51.2v350.208q0 57.344-24.064 87.040t-68.096 29.696-68.096-29.696-24.064-87.040v-282.624h-148.48v512h146.432v-72.704q48.128 82.944 148.48 82.944 82.944 0 134.656-53.248t51.712-152.576v-389.12q0-186.368-188.416-186.368z" />
<glyph unicode="&#x14c;" glyph-name="Omacron" horiz-adv-x="584" d="M441.344 984.32v-94.208h-291.84v94.208h291.84zM291.84 28.928q-114.688 0-177.664 67.584t-62.976 199.68v261.12q0 131.072 62.976 198.656t177.664 67.584 177.664-67.584 62.976-198.656v-261.12q0-132.096-62.976-199.68t-177.664-67.584zM291.84 160q45.056 0 68.608 30.72t23.552 102.4v266.24q0 71.68-23.552 102.4t-68.608 30.72-68.608-30.72-23.552-102.4v-266.24q0-71.68 23.552-102.4t68.608-30.72z" />
</font>
</defs>
</svg>
